<?xml version="1.0" encoding="UTF-8" standalone="no"?>
<svg
   width="766.848pt"
   height="174.034pt"
   viewBox="0 0 766.848 174.034"
   version="1.1"
   id="svg176"
   sodipodi:docname="aes_shiftrows.pdf"
   xmlns:inkscape="http://www.inkscape.org/namespaces/inkscape"
   xmlns:sodipodi="http://sodipodi.sourceforge.net/DTD/sodipodi-0.dtd"
   xmlns="http://www.w3.org/2000/svg"
   xmlns:svg="http://www.w3.org/2000/svg">
  <sodipodi:namedview
     id="namedview178"
     pagecolor="#ffffff"
     bordercolor="#666666"
     borderopacity="1.0"
     inkscape:showpageshadow="2"
     inkscape:pageopacity="0.0"
     inkscape:pagecheckerboard="0"
     inkscape:deskcolor="#d1d1d1"
     inkscape:document-units="pt" />
  <defs
     id="defs20">
    <clipPath
       id="clip-0">
      <path
         clip-rule="nonzero"
         d="M 737 29 L 766.847656 29 L 766.847656 58 L 737 58 Z M 737 29 "
         id="path2" />
    </clipPath>
    <clipPath
       id="clip-1">
      <path
         clip-rule="nonzero"
         d="M 737 28 L 766.847656 28 L 766.847656 58 L 737 58 Z M 737 28 "
         id="path5" />
    </clipPath>
    <clipPath
       id="clip-2">
      <path
         clip-rule="nonzero"
         d="M 737 57 L 766.847656 57 L 766.847656 86 L 737 86 Z M 737 57 "
         id="path8" />
    </clipPath>
    <clipPath
       id="clip-3">
      <path
         clip-rule="nonzero"
         d="M 737 85 L 766.847656 85 L 766.847656 115 L 737 115 Z M 737 85 "
         id="path11" />
    </clipPath>
    <clipPath
       id="clip-4">
      <path
         clip-rule="nonzero"
         d="M 737 0 L 766.847656 0 L 766.847656 30 L 737 30 Z M 737 0 "
         id="path14" />
    </clipPath>
    <clipPath
       id="clip-5">
      <path
         clip-rule="nonzero"
         d="M 651 0 L 766.847656 0 L 766.847656 115 L 651 115 Z M 651 0 "
         id="path17" />
    </clipPath>
  </defs>
  <path
     fill-rule="nonzero"
     fill="rgb(80.941772%, 81.411743%, 82.58667%)"
     fill-opacity="1"
     d="M 0.746094 114.132812 L 0.746094 0.746094 L 29.09375 0.746094 L 29.09375 114.132812 Z M 0.746094 114.132812 "
     id="path22" />
  <path
     fill-rule="nonzero"
     fill="rgb(61.880493%, 62.82196%, 65.174866%)"
     fill-opacity="1"
     d="M 29.09375 114.132812 L 29.09375 0.746094 L 57.441406 0.746094 L 57.441406 114.132812 Z M 29.09375 114.132812 "
     id="path24" />
  <path
     fill-rule="nonzero"
     fill="rgb(42.823792%, 44.236755%, 47.764587%)"
     fill-opacity="1"
     d="M 57.441406 114.132812 L 57.441406 0.746094 L 85.789062 0.746094 L 85.789062 114.132812 Z M 57.441406 114.132812 "
     id="path26" />
  <path
     fill-rule="nonzero"
     fill="rgb(23.762512%, 25.646973%, 30.352783%)"
     fill-opacity="1"
     d="M 85.789062 114.132812 L 85.789062 0.746094 L 114.132812 0.746094 L 114.132812 114.132812 Z M 85.789062 114.132812 "
     id="path28" />
  <path
     fill="none"
     stroke-width="0.3985"
     stroke-linecap="butt"
     stroke-linejoin="miter"
     stroke="rgb(0%, 0%, 0%)"
     stroke-opacity="1"
     stroke-miterlimit="10"
     d="M -0.00090625 0.0001875 L -0.00090625 113.386906 "
     transform="matrix(1, 0, 0, -1, 0.747, 114.133)"
     id="path30" />
  <path
     fill="none"
     stroke-width="0.3985"
     stroke-linecap="butt"
     stroke-linejoin="miter"
     stroke="rgb(0%, 0%, 0%)"
     stroke-opacity="1"
     stroke-miterlimit="10"
     d="M 28.34675 0.0001875 L 28.34675 113.386906 "
     transform="matrix(1, 0, 0, -1, 0.747, 114.133)"
     id="path32" />
  <path
     fill="none"
     stroke-width="0.3985"
     stroke-linecap="butt"
     stroke-linejoin="miter"
     stroke="rgb(0%, 0%, 0%)"
     stroke-opacity="1"
     stroke-miterlimit="10"
     d="M 56.694406 0.0001875 L 56.694406 113.386906 "
     transform="matrix(1, 0, 0, -1, 0.747, 114.133)"
     id="path34" />
  <path
     fill="none"
     stroke-width="0.3985"
     stroke-linecap="butt"
     stroke-linejoin="miter"
     stroke="rgb(0%, 0%, 0%)"
     stroke-opacity="1"
     stroke-miterlimit="10"
     d="M 85.042063 0.0001875 L 85.042063 113.386906 "
     transform="matrix(1, 0, 0, -1, 0.747, 114.133)"
     id="path36" />
  <path
     fill="none"
     stroke-width="0.3985"
     stroke-linecap="butt"
     stroke-linejoin="miter"
     stroke="rgb(0%, 0%, 0%)"
     stroke-opacity="1"
     stroke-miterlimit="10"
     d="M 113.385813 0.0001875 L 113.385813 113.386906 "
     transform="matrix(1, 0, 0, -1, 0.747, 114.133)"
     id="path38" />
  <path
     fill="none"
     stroke-width="1.49442"
     stroke-linecap="butt"
     stroke-linejoin="miter"
     stroke="rgb(0%, 0%, 0%)"
     stroke-opacity="1"
     stroke-miterlimit="10"
     d="M -0.00090625 0.0001875 L -0.00090625 28.347844 L 113.385813 28.347844 L 113.385813 0.0001875 Z M -0.00090625 0.0001875 "
     transform="matrix(1, 0, 0, -1, 0.747, 114.133)"
     id="path40" />
  <path
     fill="none"
     stroke-width="1.49442"
     stroke-linecap="butt"
     stroke-linejoin="miter"
     stroke="rgb(0%, 0%, 0%)"
     stroke-opacity="1"
     stroke-miterlimit="10"
     d="M -0.00090625 28.347844 L -0.00090625 56.6955 L 113.385813 56.6955 L 113.385813 28.347844 Z M -0.00090625 28.347844 "
     transform="matrix(1, 0, 0, -1, 0.747, 114.133)"
     id="path42" />
  <path
     fill="none"
     stroke-width="1.49442"
     stroke-linecap="butt"
     stroke-linejoin="miter"
     stroke="rgb(0%, 0%, 0%)"
     stroke-opacity="1"
     stroke-miterlimit="10"
     d="M -0.00090625 56.6955 L -0.00090625 85.03925 L 113.385813 85.03925 L 113.385813 56.6955 Z M -0.00090625 56.6955 "
     transform="matrix(1, 0, 0, -1, 0.747, 114.133)"
     id="path44" />
  <path
     fill="none"
     stroke-width="1.49442"
     stroke-linecap="butt"
     stroke-linejoin="miter"
     stroke="rgb(0%, 0%, 0%)"
     stroke-opacity="1"
     stroke-miterlimit="10"
     d="M -0.00090625 85.03925 L -0.00090625 113.386906 L 113.385813 113.386906 L 113.385813 85.03925 Z M -0.00090625 85.03925 "
     transform="matrix(1, 0, 0, -1, 0.747, 114.133)"
     id="path46" />
  <path
     fill-rule="nonzero"
     fill="rgb(80.941772%, 81.411743%, 82.58667%)"
     fill-opacity="1"
     stroke-width="0.3985"
     stroke-linecap="butt"
     stroke-linejoin="miter"
     stroke="rgb(0%, 0%, 0%)"
     stroke-opacity="1"
     stroke-miterlimit="10"
     d="M 170.081125 0.0001875 L 170.081125 28.347844 L 198.428781 28.347844 L 198.428781 0.0001875 Z M 170.081125 0.0001875 "
     transform="matrix(1, 0, 0, -1, 0.747, 114.133)"
     id="path48" />
  <path
     fill-rule="nonzero"
     fill="rgb(80.941772%, 81.411743%, 82.58667%)"
     fill-opacity="1"
     stroke-width="0.3985"
     stroke-linecap="butt"
     stroke-linejoin="miter"
     stroke="rgb(0%, 0%, 0%)"
     stroke-opacity="1"
     stroke-miterlimit="10"
     d="M 198.428781 28.347844 L 198.428781 56.6955 L 226.772531 56.6955 L 226.772531 28.347844 Z M 198.428781 28.347844 "
     transform="matrix(1, 0, 0, -1, 0.747, 114.133)"
     id="path50" />
  <path
     fill-rule="nonzero"
     fill="rgb(80.941772%, 81.411743%, 82.58667%)"
     fill-opacity="1"
     stroke-width="0.3985"
     stroke-linecap="butt"
     stroke-linejoin="miter"
     stroke="rgb(0%, 0%, 0%)"
     stroke-opacity="1"
     stroke-miterlimit="10"
     d="M 226.772531 56.6955 L 226.772531 85.03925 L 255.120187 85.03925 L 255.120187 56.6955 Z M 226.772531 56.6955 "
     transform="matrix(1, 0, 0, -1, 0.747, 114.133)"
     id="path52" />
  <path
     fill-rule="nonzero"
     fill="rgb(80.941772%, 81.411743%, 82.58667%)"
     fill-opacity="1"
     stroke-width="0.3985"
     stroke-linecap="butt"
     stroke-linejoin="miter"
     stroke="rgb(0%, 0%, 0%)"
     stroke-opacity="1"
     stroke-miterlimit="10"
     d="M 255.120187 85.03925 L 255.120187 113.386906 L 283.467844 113.386906 L 283.467844 85.03925 Z M 255.120187 85.03925 "
     transform="matrix(1, 0, 0, -1, 0.747, 114.133)"
     id="path54" />
  <path
     fill-rule="nonzero"
     fill="rgb(61.880493%, 62.82196%, 65.174866%)"
     fill-opacity="1"
     stroke-width="0.3985"
     stroke-linecap="butt"
     stroke-linejoin="miter"
     stroke="rgb(0%, 0%, 0%)"
     stroke-opacity="1"
     stroke-miterlimit="10"
     d="M 198.428781 0.0001875 L 198.428781 28.347844 L 226.772531 28.347844 L 226.772531 0.0001875 Z M 198.428781 0.0001875 "
     transform="matrix(1, 0, 0, -1, 0.747, 114.133)"
     id="path56" />
  <path
     fill-rule="nonzero"
     fill="rgb(61.880493%, 62.82196%, 65.174866%)"
     fill-opacity="1"
     stroke-width="0.3985"
     stroke-linecap="butt"
     stroke-linejoin="miter"
     stroke="rgb(0%, 0%, 0%)"
     stroke-opacity="1"
     stroke-miterlimit="10"
     d="M 226.772531 28.347844 L 226.772531 56.6955 L 255.120187 56.6955 L 255.120187 28.347844 Z M 226.772531 28.347844 "
     transform="matrix(1, 0, 0, -1, 0.747, 114.133)"
     id="path58" />
  <path
     fill-rule="nonzero"
     fill="rgb(61.880493%, 62.82196%, 65.174866%)"
     fill-opacity="1"
     stroke-width="0.3985"
     stroke-linecap="butt"
     stroke-linejoin="miter"
     stroke="rgb(0%, 0%, 0%)"
     stroke-opacity="1"
     stroke-miterlimit="10"
     d="M 255.120187 56.6955 L 255.120187 85.03925 L 283.467844 85.03925 L 283.467844 56.6955 Z M 255.120187 56.6955 "
     transform="matrix(1, 0, 0, -1, 0.747, 114.133)"
     id="path60" />
  <path
     fill-rule="nonzero"
     fill="rgb(61.880493%, 62.82196%, 65.174866%)"
     fill-opacity="1"
     stroke-width="0.3985"
     stroke-linecap="butt"
     stroke-linejoin="miter"
     stroke="rgb(0%, 0%, 0%)"
     stroke-opacity="1"
     stroke-miterlimit="10"
     d="M 283.467844 85.03925 L 283.467844 113.386906 L 311.8155 113.386906 L 311.8155 85.03925 Z M 283.467844 85.03925 "
     transform="matrix(1, 0, 0, -1, 0.747, 114.133)"
     id="path62" />
  <path
     fill-rule="nonzero"
     fill="rgb(42.823792%, 44.236755%, 47.764587%)"
     fill-opacity="1"
     stroke-width="0.3985"
     stroke-linecap="butt"
     stroke-linejoin="miter"
     stroke="rgb(0%, 0%, 0%)"
     stroke-opacity="1"
     stroke-miterlimit="10"
     d="M 226.772531 0.0001875 L 226.772531 28.347844 L 255.120187 28.347844 L 255.120187 0.0001875 Z M 226.772531 0.0001875 "
     transform="matrix(1, 0, 0, -1, 0.747, 114.133)"
     id="path64" />
  <path
     fill-rule="nonzero"
     fill="rgb(42.823792%, 44.236755%, 47.764587%)"
     fill-opacity="1"
     stroke-width="0.3985"
     stroke-linecap="butt"
     stroke-linejoin="miter"
     stroke="rgb(0%, 0%, 0%)"
     stroke-opacity="1"
     stroke-miterlimit="10"
     d="M 255.120187 28.347844 L 255.120187 56.6955 L 283.467844 56.6955 L 283.467844 28.347844 Z M 255.120187 28.347844 "
     transform="matrix(1, 0, 0, -1, 0.747, 114.133)"
     id="path66" />
  <path
     fill-rule="nonzero"
     fill="rgb(42.823792%, 44.236755%, 47.764587%)"
     fill-opacity="1"
     stroke-width="0.3985"
     stroke-linecap="butt"
     stroke-linejoin="miter"
     stroke="rgb(0%, 0%, 0%)"
     stroke-opacity="1"
     stroke-miterlimit="10"
     d="M 283.467844 56.6955 L 283.467844 85.03925 L 311.8155 85.03925 L 311.8155 56.6955 Z M 283.467844 56.6955 "
     transform="matrix(1, 0, 0, -1, 0.747, 114.133)"
     id="path68" />
  <path
     fill-rule="nonzero"
     fill="rgb(42.823792%, 44.236755%, 47.764587%)"
     fill-opacity="1"
     stroke-width="0.3985"
     stroke-linecap="butt"
     stroke-linejoin="miter"
     stroke="rgb(0%, 0%, 0%)"
     stroke-opacity="1"
     stroke-miterlimit="10"
     d="M 311.8155 85.03925 L 311.8155 113.386906 L 340.163156 113.386906 L 340.163156 85.03925 Z M 311.8155 85.03925 "
     transform="matrix(1, 0, 0, -1, 0.747, 114.133)"
     id="path70" />
  <path
     fill-rule="nonzero"
     fill="rgb(23.762512%, 25.646973%, 30.352783%)"
     fill-opacity="1"
     stroke-width="0.3985"
     stroke-linecap="butt"
     stroke-linejoin="miter"
     stroke="rgb(0%, 0%, 0%)"
     stroke-opacity="1"
     stroke-miterlimit="10"
     d="M 255.120187 0.0001875 L 255.120187 28.347844 L 283.467844 28.347844 L 283.467844 0.0001875 Z M 255.120187 0.0001875 "
     transform="matrix(1, 0, 0, -1, 0.747, 114.133)"
     id="path72" />
  <path
     fill-rule="nonzero"
     fill="rgb(23.762512%, 25.646973%, 30.352783%)"
     fill-opacity="1"
     stroke-width="0.3985"
     stroke-linecap="butt"
     stroke-linejoin="miter"
     stroke="rgb(0%, 0%, 0%)"
     stroke-opacity="1"
     stroke-miterlimit="10"
     d="M 283.467844 28.347844 L 283.467844 56.6955 L 311.8155 56.6955 L 311.8155 28.347844 Z M 283.467844 28.347844 "
     transform="matrix(1, 0, 0, -1, 0.747, 114.133)"
     id="path74" />
  <path
     fill-rule="nonzero"
     fill="rgb(23.762512%, 25.646973%, 30.352783%)"
     fill-opacity="1"
     stroke-width="0.3985"
     stroke-linecap="butt"
     stroke-linejoin="miter"
     stroke="rgb(0%, 0%, 0%)"
     stroke-opacity="1"
     stroke-miterlimit="10"
     d="M 311.8155 56.6955 L 311.8155 85.03925 L 340.163156 85.03925 L 340.163156 56.6955 Z M 311.8155 56.6955 "
     transform="matrix(1, 0, 0, -1, 0.747, 114.133)"
     id="path76" />
  <path
     fill-rule="nonzero"
     fill="rgb(23.762512%, 25.646973%, 30.352783%)"
     fill-opacity="1"
     stroke-width="0.3985"
     stroke-linecap="butt"
     stroke-linejoin="miter"
     stroke="rgb(0%, 0%, 0%)"
     stroke-opacity="1"
     stroke-miterlimit="10"
     d="M 340.163156 85.03925 L 340.163156 113.386906 L 368.506906 113.386906 L 368.506906 85.03925 Z M 340.163156 85.03925 "
     transform="matrix(1, 0, 0, -1, 0.747, 114.133)"
     id="path78" />
  <path
     fill="none"
     stroke-width="1.49442"
     stroke-linecap="butt"
     stroke-linejoin="miter"
     stroke="rgb(0%, 0%, 0%)"
     stroke-opacity="1"
     stroke-miterlimit="10"
     d="M 170.081125 0.0001875 L 170.081125 28.347844 L 283.467844 28.347844 L 283.467844 0.0001875 Z M 170.081125 0.0001875 "
     transform="matrix(1, 0, 0, -1, 0.747, 114.133)"
     id="path80" />
  <path
     fill="none"
     stroke-width="1.49442"
     stroke-linecap="butt"
     stroke-linejoin="miter"
     stroke="rgb(0%, 0%, 0%)"
     stroke-opacity="1"
     stroke-miterlimit="10"
     d="M 198.428781 28.347844 L 198.428781 56.6955 L 311.8155 56.6955 L 311.8155 28.347844 Z M 198.428781 28.347844 "
     transform="matrix(1, 0, 0, -1, 0.747, 114.133)"
     id="path82" />
  <path
     fill="none"
     stroke-width="1.49442"
     stroke-linecap="butt"
     stroke-linejoin="miter"
     stroke="rgb(0%, 0%, 0%)"
     stroke-opacity="1"
     stroke-miterlimit="10"
     d="M 226.772531 56.6955 L 226.772531 85.03925 L 340.163156 85.03925 L 340.163156 56.6955 Z M 226.772531 56.6955 "
     transform="matrix(1, 0, 0, -1, 0.747, 114.133)"
     id="path84" />
  <path
     fill="none"
     stroke-width="1.49442"
     stroke-linecap="butt"
     stroke-linejoin="miter"
     stroke="rgb(0%, 0%, 0%)"
     stroke-opacity="1"
     stroke-miterlimit="10"
     d="M 255.120187 85.03925 L 255.120187 113.386906 L 368.506906 113.386906 L 368.506906 85.03925 Z M 255.120187 85.03925 "
     transform="matrix(1, 0, 0, -1, 0.747, 114.133)"
     id="path86" />
  <path
     fill-rule="nonzero"
     fill="rgb(80.941772%, 81.411743%, 82.58667%)"
     fill-opacity="1"
     stroke-width="0.3985"
     stroke-linecap="butt"
     stroke-linejoin="miter"
     stroke="rgb(0%, 0%, 0%)"
     stroke-opacity="1"
     stroke-miterlimit="10"
     d="M 396.854562 0.0001875 L 396.854562 28.347844 L 425.202219 28.347844 L 425.202219 0.0001875 Z M 396.854562 0.0001875 "
     transform="matrix(1, 0, 0, -1, 0.747, 114.133)"
     id="path88" />
  <path
     fill-rule="nonzero"
     fill="rgb(80.941772%, 81.411743%, 82.58667%)"
     fill-opacity="1"
     stroke-width="0.3985"
     stroke-linecap="butt"
     stroke-linejoin="miter"
     stroke="rgb(0%, 0%, 0%)"
     stroke-opacity="1"
     stroke-miterlimit="10"
     d="M 425.202219 28.347844 L 425.202219 56.6955 L 453.549875 56.6955 L 453.549875 28.347844 Z M 425.202219 28.347844 "
     transform="matrix(1, 0, 0, -1, 0.747, 114.133)"
     id="path90" />
  <path
     fill-rule="nonzero"
     fill="rgb(80.941772%, 81.411743%, 82.58667%)"
     fill-opacity="1"
     stroke-width="0.3985"
     stroke-linecap="butt"
     stroke-linejoin="miter"
     stroke="rgb(0%, 0%, 0%)"
     stroke-opacity="1"
     stroke-miterlimit="10"
     d="M 453.549875 56.6955 L 453.549875 85.03925 L 481.897531 85.03925 L 481.897531 56.6955 Z M 453.549875 56.6955 "
     transform="matrix(1, 0, 0, -1, 0.747, 114.133)"
     id="path92" />
  <path
     fill-rule="nonzero"
     fill="rgb(61.880493%, 62.82196%, 65.174866%)"
     fill-opacity="1"
     stroke-width="0.3985"
     stroke-linecap="butt"
     stroke-linejoin="miter"
     stroke="rgb(0%, 0%, 0%)"
     stroke-opacity="1"
     stroke-miterlimit="10"
     d="M 425.202219 0.0001875 L 425.202219 28.347844 L 453.549875 28.347844 L 453.549875 0.0001875 Z M 425.202219 0.0001875 "
     transform="matrix(1, 0, 0, -1, 0.747, 114.133)"
     id="path94" />
  <path
     fill-rule="nonzero"
     fill="rgb(61.880493%, 62.82196%, 65.174866%)"
     fill-opacity="1"
     stroke-width="0.3985"
     stroke-linecap="butt"
     stroke-linejoin="miter"
     stroke="rgb(0%, 0%, 0%)"
     stroke-opacity="1"
     stroke-miterlimit="10"
     d="M 453.549875 28.347844 L 453.549875 56.6955 L 481.897531 56.6955 L 481.897531 28.347844 Z M 453.549875 28.347844 "
     transform="matrix(1, 0, 0, -1, 0.747, 114.133)"
     id="path96" />
  <path
     fill-rule="nonzero"
     fill="rgb(42.823792%, 44.236755%, 47.764587%)"
     fill-opacity="1"
     stroke-width="0.3985"
     stroke-linecap="butt"
     stroke-linejoin="miter"
     stroke="rgb(0%, 0%, 0%)"
     stroke-opacity="1"
     stroke-miterlimit="10"
     d="M 453.549875 0.0001875 L 453.549875 28.347844 L 481.897531 28.347844 L 481.897531 0.0001875 Z M 453.549875 0.0001875 "
     transform="matrix(1, 0, 0, -1, 0.747, 114.133)"
     id="path98" />
  <path
     fill="none"
     stroke-width="1.49442"
     stroke-linecap="butt"
     stroke-linejoin="miter"
     stroke="rgb(0%, 0%, 0%)"
     stroke-opacity="1"
     stroke-miterlimit="10"
     d="M 396.854562 0.0001875 L 481.897531 0.0001875 L 481.897531 85.03925 L 453.549875 85.03925 L 453.549875 56.6955 L 425.202219 56.6955 L 425.202219 28.347844 L 396.854562 28.347844 Z M 396.854562 0.0001875 "
     transform="matrix(1, 0, 0, -1, 0.747, 114.133)"
     id="path100" />
  <path
     fill-rule="nonzero"
     fill="rgb(80.941772%, 81.411743%, 82.58667%)"
     fill-opacity="1"
     stroke-width="0.3985"
     stroke-linecap="butt"
     stroke-linejoin="miter"
     stroke="rgb(0%, 0%, 0%)"
     stroke-opacity="1"
     stroke-miterlimit="10"
     d="M 490.401437 85.03925 L 490.401437 113.386906 L 518.745188 113.386906 L 518.745188 85.03925 Z M 490.401437 85.03925 "
     transform="matrix(1, 0, 0, -1, 0.747, 114.133)"
     id="path102" />
  <path
     fill-rule="nonzero"
     fill="rgb(61.880493%, 62.82196%, 65.174866%)"
     fill-opacity="1"
     stroke-width="0.3985"
     stroke-linecap="butt"
     stroke-linejoin="miter"
     stroke="rgb(0%, 0%, 0%)"
     stroke-opacity="1"
     stroke-miterlimit="10"
     d="M 490.401437 56.6955 L 490.401437 85.03925 L 518.745188 85.03925 L 518.745188 56.6955 Z M 490.401437 56.6955 "
     transform="matrix(1, 0, 0, -1, 0.747, 114.133)"
     id="path104" />
  <path
     fill-rule="nonzero"
     fill="rgb(61.880493%, 62.82196%, 65.174866%)"
     fill-opacity="1"
     stroke-width="0.3985"
     stroke-linecap="butt"
     stroke-linejoin="miter"
     stroke="rgb(0%, 0%, 0%)"
     stroke-opacity="1"
     stroke-miterlimit="10"
     d="M 518.745188 85.03925 L 518.745188 113.386906 L 547.092844 113.386906 L 547.092844 85.03925 Z M 518.745188 85.03925 "
     transform="matrix(1, 0, 0, -1, 0.747, 114.133)"
     id="path106" />
  <path
     fill-rule="nonzero"
     fill="rgb(42.823792%, 44.236755%, 47.764587%)"
     fill-opacity="1"
     stroke-width="0.3985"
     stroke-linecap="butt"
     stroke-linejoin="miter"
     stroke="rgb(0%, 0%, 0%)"
     stroke-opacity="1"
     stroke-miterlimit="10"
     d="M 490.401437 28.347844 L 490.401437 56.6955 L 518.745188 56.6955 L 518.745188 28.347844 Z M 490.401437 28.347844 "
     transform="matrix(1, 0, 0, -1, 0.747, 114.133)"
     id="path108" />
  <path
     fill-rule="nonzero"
     fill="rgb(42.823792%, 44.236755%, 47.764587%)"
     fill-opacity="1"
     stroke-width="0.3985"
     stroke-linecap="butt"
     stroke-linejoin="miter"
     stroke="rgb(0%, 0%, 0%)"
     stroke-opacity="1"
     stroke-miterlimit="10"
     d="M 518.745188 56.6955 L 518.745188 85.03925 L 547.092844 85.03925 L 547.092844 56.6955 Z M 518.745188 56.6955 "
     transform="matrix(1, 0, 0, -1, 0.747, 114.133)"
     id="path110" />
  <path
     fill-rule="nonzero"
     fill="rgb(42.823792%, 44.236755%, 47.764587%)"
     fill-opacity="1"
     stroke-width="0.3985"
     stroke-linecap="butt"
     stroke-linejoin="miter"
     stroke="rgb(0%, 0%, 0%)"
     stroke-opacity="1"
     stroke-miterlimit="10"
     d="M 547.092844 85.03925 L 547.092844 113.386906 L 575.4405 113.386906 L 575.4405 85.03925 Z M 547.092844 85.03925 "
     transform="matrix(1, 0, 0, -1, 0.747, 114.133)"
     id="path112" />
  <path
     fill-rule="nonzero"
     fill="rgb(23.762512%, 25.646973%, 30.352783%)"
     fill-opacity="1"
     stroke-width="0.3985"
     stroke-linecap="butt"
     stroke-linejoin="miter"
     stroke="rgb(0%, 0%, 0%)"
     stroke-opacity="1"
     stroke-miterlimit="10"
     d="M 490.401437 0.0001875 L 490.401437 28.347844 L 518.745188 28.347844 L 518.745188 0.0001875 Z M 490.401437 0.0001875 "
     transform="matrix(1, 0, 0, -1, 0.747, 114.133)"
     id="path114" />
  <path
     fill-rule="nonzero"
     fill="rgb(23.762512%, 25.646973%, 30.352783%)"
     fill-opacity="1"
     stroke-width="0.3985"
     stroke-linecap="butt"
     stroke-linejoin="miter"
     stroke="rgb(0%, 0%, 0%)"
     stroke-opacity="1"
     stroke-miterlimit="10"
     d="M 518.745188 28.347844 L 518.745188 56.6955 L 547.092844 56.6955 L 547.092844 28.347844 Z M 518.745188 28.347844 "
     transform="matrix(1, 0, 0, -1, 0.747, 114.133)"
     id="path116" />
  <path
     fill-rule="nonzero"
     fill="rgb(23.762512%, 25.646973%, 30.352783%)"
     fill-opacity="1"
     stroke-width="0.3985"
     stroke-linecap="butt"
     stroke-linejoin="miter"
     stroke="rgb(0%, 0%, 0%)"
     stroke-opacity="1"
     stroke-miterlimit="10"
     d="M 547.092844 56.6955 L 547.092844 85.03925 L 575.4405 85.03925 L 575.4405 56.6955 Z M 547.092844 56.6955 "
     transform="matrix(1, 0, 0, -1, 0.747, 114.133)"
     id="path118" />
  <path
     fill-rule="nonzero"
     fill="rgb(23.762512%, 25.646973%, 30.352783%)"
     fill-opacity="1"
     stroke-width="0.3985"
     stroke-linecap="butt"
     stroke-linejoin="miter"
     stroke="rgb(0%, 0%, 0%)"
     stroke-opacity="1"
     stroke-miterlimit="10"
     d="M 575.4405 85.03925 L 575.4405 113.386906 L 603.788156 113.386906 L 603.788156 85.03925 Z M 575.4405 85.03925 "
     transform="matrix(1, 0, 0, -1, 0.747, 114.133)"
     id="path120" />
  <path
     fill="none"
     stroke-width="1.49442"
     stroke-linecap="butt"
     stroke-linejoin="miter"
     stroke="rgb(0%, 0%, 0%)"
     stroke-opacity="1"
     stroke-miterlimit="10"
     d="M 490.401437 0.0001875 L 518.745188 0.0001875 L 518.745188 28.347844 L 547.092844 28.347844 L 547.092844 56.6955 L 575.4405 56.6955 L 575.4405 85.03925 L 603.788156 85.03925 L 603.788156 113.386906 L 490.401437 113.386906 Z M 490.401437 0.0001875 "
     transform="matrix(1, 0, 0, -1, 0.747, 114.133)"
     id="path122" />
  <path
     fill="none"
     stroke-width="1.49442"
     stroke-linecap="butt"
     stroke-linejoin="miter"
     stroke="rgb(0%, 0%, 0%)"
     stroke-opacity="1"
     stroke-miterlimit="10"
     d="M 440.319406 -7.038875 C 454.28425 -59.156063 575.4405 -32.644344 575.4405 14.761906 "
     transform="matrix(1, 0, 0, -1, 0.747, 114.133)"
     id="path124" />
  <path
     fill-rule="nonzero"
     fill="rgb(0%, 0%, 0%)"
     fill-opacity="1"
     d="M 576.1875 92.824219 C 575.824219 94.765625 574.734375 97.917969 573.460938 100.097656 L 578.914062 100.097656 C 577.640625 97.917969 576.550781 94.765625 576.1875 92.824219 "
     id="path126" />
  <path
     fill-rule="nonzero"
     fill="rgb(80.941772%, 81.411743%, 82.58667%)"
     fill-opacity="1"
     stroke-width="0.3985"
     stroke-linecap="butt"
     stroke-linejoin="miter"
     stroke="rgb(0%, 0%, 0%)"
     stroke-opacity="1"
     stroke-miterlimit="10"
     d="M 651.975656 85.03925 L 651.975656 113.386906 L 680.323313 113.386906 L 680.323313 85.03925 Z M 651.975656 85.03925 "
     transform="matrix(1, 0, 0, -1, 0.747, 114.133)"
     id="path128" />
  <path
     fill-rule="nonzero"
     fill="rgb(80.941772%, 81.411743%, 82.58667%)"
     fill-opacity="1"
     stroke-width="0.3985"
     stroke-linecap="butt"
     stroke-linejoin="miter"
     stroke="rgb(0%, 0%, 0%)"
     stroke-opacity="1"
     stroke-miterlimit="10"
     d="M 680.323313 0.0001875 L 680.323313 28.347844 L 708.670969 28.347844 L 708.670969 0.0001875 Z M 680.323313 0.0001875 "
     transform="matrix(1, 0, 0, -1, 0.747, 114.133)"
     id="path130" />
  <path
     fill-rule="nonzero"
     fill="rgb(80.941772%, 81.411743%, 82.58667%)"
     fill-opacity="1"
     stroke-width="0.3985"
     stroke-linecap="butt"
     stroke-linejoin="miter"
     stroke="rgb(0%, 0%, 0%)"
     stroke-opacity="1"
     stroke-miterlimit="10"
     d="M 708.670969 28.347844 L 708.670969 56.6955 L 737.018625 56.6955 L 737.018625 28.347844 Z M 708.670969 28.347844 "
     transform="matrix(1, 0, 0, -1, 0.747, 114.133)"
     id="path132" />
  <g
     clip-path="url(#clip-0)"
     id="g136">
    <path
       fill-rule="nonzero"
       fill="rgb(80.941772%, 81.411743%, 82.58667%)"
       fill-opacity="1"
       d="M 737.765625 57.4375 L 737.765625 29.09375 L 766.109375 29.09375 L 766.109375 57.4375 Z M 737.765625 57.4375 "
       id="path134" />
  </g>
  <g
     clip-path="url(#clip-1)"
     id="g140">
    <path
       fill="none"
       stroke-width="0.3985"
       stroke-linecap="butt"
       stroke-linejoin="miter"
       stroke="rgb(0%, 0%, 0%)"
       stroke-opacity="1"
       stroke-miterlimit="10"
       d="M 737.018625 56.6955 L 737.018625 85.03925 L 765.362375 85.03925 L 765.362375 56.6955 Z M 737.018625 56.6955 "
       transform="matrix(1, 0, 0, -1, 0.747, 114.133)"
       id="path138" />
  </g>
  <path
     fill-rule="nonzero"
     fill="rgb(61.880493%, 62.82196%, 65.174866%)"
     fill-opacity="1"
     stroke-width="0.3985"
     stroke-linecap="butt"
     stroke-linejoin="miter"
     stroke="rgb(0%, 0%, 0%)"
     stroke-opacity="1"
     stroke-miterlimit="10"
     d="M 651.975656 56.6955 L 651.975656 85.03925 L 680.323313 85.03925 L 680.323313 56.6955 Z M 651.975656 56.6955 "
     transform="matrix(1, 0, 0, -1, 0.747, 114.133)"
     id="path142" />
  <path
     fill-rule="nonzero"
     fill="rgb(61.880493%, 62.82196%, 65.174866%)"
     fill-opacity="1"
     stroke-width="0.3985"
     stroke-linecap="butt"
     stroke-linejoin="miter"
     stroke="rgb(0%, 0%, 0%)"
     stroke-opacity="1"
     stroke-miterlimit="10"
     d="M 680.323313 85.03925 L 680.323313 113.386906 L 708.670969 113.386906 L 708.670969 85.03925 Z M 680.323313 85.03925 "
     transform="matrix(1, 0, 0, -1, 0.747, 114.133)"
     id="path144" />
  <path
     fill-rule="nonzero"
     fill="rgb(61.880493%, 62.82196%, 65.174866%)"
     fill-opacity="1"
     stroke-width="0.3985"
     stroke-linecap="butt"
     stroke-linejoin="miter"
     stroke="rgb(0%, 0%, 0%)"
     stroke-opacity="1"
     stroke-miterlimit="10"
     d="M 708.670969 0.0001875 L 708.670969 28.347844 L 737.018625 28.347844 L 737.018625 0.0001875 Z M 708.670969 0.0001875 "
     transform="matrix(1, 0, 0, -1, 0.747, 114.133)"
     id="path146" />
  <g
     clip-path="url(#clip-2)"
     id="g150">
    <path
       fill-rule="nonzero"
       fill="rgb(61.880493%, 62.82196%, 65.174866%)"
       fill-opacity="1"
       stroke-width="0.3985"
       stroke-linecap="butt"
       stroke-linejoin="miter"
       stroke="rgb(0%, 0%, 0%)"
       stroke-opacity="1"
       stroke-miterlimit="10"
       d="M 737.018625 28.347844 L 737.018625 56.6955 L 765.362375 56.6955 L 765.362375 28.347844 Z M 737.018625 28.347844 "
       transform="matrix(1, 0, 0, -1, 0.747, 114.133)"
       id="path148" />
  </g>
  <path
     fill-rule="nonzero"
     fill="rgb(42.823792%, 44.236755%, 47.764587%)"
     fill-opacity="1"
     stroke-width="0.3985"
     stroke-linecap="butt"
     stroke-linejoin="miter"
     stroke="rgb(0%, 0%, 0%)"
     stroke-opacity="1"
     stroke-miterlimit="10"
     d="M 651.975656 28.347844 L 651.975656 56.6955 L 680.323313 56.6955 L 680.323313 28.347844 Z M 651.975656 28.347844 "
     transform="matrix(1, 0, 0, -1, 0.747, 114.133)"
     id="path152" />
  <path
     fill-rule="nonzero"
     fill="rgb(42.823792%, 44.236755%, 47.764587%)"
     fill-opacity="1"
     stroke-width="0.3985"
     stroke-linecap="butt"
     stroke-linejoin="miter"
     stroke="rgb(0%, 0%, 0%)"
     stroke-opacity="1"
     stroke-miterlimit="10"
     d="M 680.323313 56.6955 L 680.323313 85.03925 L 708.670969 85.03925 L 708.670969 56.6955 Z M 680.323313 56.6955 "
     transform="matrix(1, 0, 0, -1, 0.747, 114.133)"
     id="path154" />
  <path
     fill-rule="nonzero"
     fill="rgb(42.823792%, 44.236755%, 47.764587%)"
     fill-opacity="1"
     stroke-width="0.3985"
     stroke-linecap="butt"
     stroke-linejoin="miter"
     stroke="rgb(0%, 0%, 0%)"
     stroke-opacity="1"
     stroke-miterlimit="10"
     d="M 708.670969 85.03925 L 708.670969 113.386906 L 737.018625 113.386906 L 737.018625 85.03925 Z M 708.670969 85.03925 "
     transform="matrix(1, 0, 0, -1, 0.747, 114.133)"
     id="path156" />
  <g
     clip-path="url(#clip-3)"
     id="g160">
    <path
       fill-rule="nonzero"
       fill="rgb(42.823792%, 44.236755%, 47.764587%)"
       fill-opacity="1"
       stroke-width="0.3985"
       stroke-linecap="butt"
       stroke-linejoin="miter"
       stroke="rgb(0%, 0%, 0%)"
       stroke-opacity="1"
       stroke-miterlimit="10"
       d="M 737.018625 0.0001875 L 737.018625 28.347844 L 765.362375 28.347844 L 765.362375 0.0001875 Z M 737.018625 0.0001875 "
       transform="matrix(1, 0, 0, -1, 0.747, 114.133)"
       id="path158" />
  </g>
  <path
     fill-rule="nonzero"
     fill="rgb(23.762512%, 25.646973%, 30.352783%)"
     fill-opacity="1"
     stroke-width="0.3985"
     stroke-linecap="butt"
     stroke-linejoin="miter"
     stroke="rgb(0%, 0%, 0%)"
     stroke-opacity="1"
     stroke-miterlimit="10"
     d="M 651.975656 0.0001875 L 651.975656 28.347844 L 680.323313 28.347844 L 680.323313 0.0001875 Z M 651.975656 0.0001875 "
     transform="matrix(1, 0, 0, -1, 0.747, 114.133)"
     id="path162" />
  <path
     fill-rule="nonzero"
     fill="rgb(23.762512%, 25.646973%, 30.352783%)"
     fill-opacity="1"
     stroke-width="0.3985"
     stroke-linecap="butt"
     stroke-linejoin="miter"
     stroke="rgb(0%, 0%, 0%)"
     stroke-opacity="1"
     stroke-miterlimit="10"
     d="M 680.323313 28.347844 L 680.323313 56.6955 L 708.670969 56.6955 L 708.670969 28.347844 Z M 680.323313 28.347844 "
     transform="matrix(1, 0, 0, -1, 0.747, 114.133)"
     id="path164" />
  <path
     fill-rule="nonzero"
     fill="rgb(23.762512%, 25.646973%, 30.352783%)"
     fill-opacity="1"
     stroke-width="0.3985"
     stroke-linecap="butt"
     stroke-linejoin="miter"
     stroke="rgb(0%, 0%, 0%)"
     stroke-opacity="1"
     stroke-miterlimit="10"
     d="M 708.670969 56.6955 L 708.670969 85.03925 L 737.018625 85.03925 L 737.018625 56.6955 Z M 708.670969 56.6955 "
     transform="matrix(1, 0, 0, -1, 0.747, 114.133)"
     id="path166" />
  <g
     clip-path="url(#clip-4)"
     id="g170">
    <path
       fill-rule="nonzero"
       fill="rgb(23.762512%, 25.646973%, 30.352783%)"
       fill-opacity="1"
       stroke-width="0.3985"
       stroke-linecap="butt"
       stroke-linejoin="miter"
       stroke="rgb(0%, 0%, 0%)"
       stroke-opacity="1"
       stroke-miterlimit="10"
       d="M 737.018625 85.03925 L 737.018625 113.386906 L 765.362375 113.386906 L 765.362375 85.03925 Z M 737.018625 85.03925 "
       transform="matrix(1, 0, 0, -1, 0.747, 114.133)"
       id="path168" />
  </g>
  <g
     clip-path="url(#clip-5)"
     id="g174">
    <path
       fill="none"
       stroke-width="1.49442"
       stroke-linecap="butt"
       stroke-linejoin="miter"
       stroke="rgb(0%, 0%, 0%)"
       stroke-opacity="1"
       stroke-miterlimit="10"
       d="M 651.975656 0.0001875 L 651.975656 113.386906 L 765.362375 113.386906 L 765.362375 0.0001875 Z M 651.975656 0.0001875 "
       transform="matrix(1, 0, 0, -1, 0.747, 114.133)"
       id="path172" />
  </g>
</svg>
