<?xml version="1.0" encoding="UTF-8" standalone="no"?>
<svg
   width="291.93pt"
   height="188.466pt"
   viewBox="0 0 291.93 188.466"
   version="1.1"
   id="svg78"
   sodipodi:docname="projective_parallel.pdf"
   xmlns:inkscape="http://www.inkscape.org/namespaces/inkscape"
   xmlns:sodipodi="http://sodipodi.sourceforge.net/DTD/sodipodi-0.dtd"
   xmlns="http://www.w3.org/2000/svg"
   xmlns:svg="http://www.w3.org/2000/svg">
  <sodipodi:namedview
     id="namedview80"
     pagecolor="#ffffff"
     bordercolor="#666666"
     borderopacity="1.0"
     inkscape:showpageshadow="2"
     inkscape:pageopacity="0.0"
     inkscape:pagecheckerboard="0"
     inkscape:deskcolor="#d1d1d1"
     inkscape:document-units="pt" />
  <defs
     id="defs8">
    <clipPath
       id="clip-0">
      <path
         clip-rule="nonzero"
         d="M 197 0 L 291.929688 0 L 291.929688 188.464844 L 197 188.464844 Z M 197 0 "
         id="path2" />
    </clipPath>
    <clipPath
       id="clip-1">
      <path
         clip-rule="nonzero"
         d="M 0 8 L 291.929688 8 L 291.929688 188.464844 L 0 188.464844 Z M 0 8 "
         id="path5" />
    </clipPath>
  </defs>
  <g
     clip-path="url(#clip-0)"
     id="g12">
    <path
       fill="none"
       stroke-width="0.3985"
       stroke-linecap="butt"
       stroke-linejoin="miter"
       stroke="rgb(89.99939%, 89.99939%, 89.99939%)"
       stroke-opacity="1"
       stroke-miterlimit="10"
       d="M 218.653375 -130.286531 L 130.290094 54.662688 "
       transform="matrix(1, 0, 0, -1, 73.081, 57.983)"
       id="path10" />
  </g>
  <path
     fill="none"
     stroke-width="0.3985"
     stroke-linecap="butt"
     stroke-linejoin="miter"
     stroke="rgb(89.99939%, 89.99939%, 89.99939%)"
     stroke-opacity="1"
     stroke-miterlimit="10"
     d="M 145.774469 -86.86075 L 130.290094 54.662688 "
     transform="matrix(1, 0, 0, -1, 73.081, 57.983)"
     id="path14" />
  <path
     fill="none"
     stroke-width="0.3985"
     stroke-linecap="butt"
     stroke-linejoin="miter"
     stroke="rgb(89.99939%, 89.99939%, 89.99939%)"
     stroke-opacity="1"
     stroke-miterlimit="10"
     d="M 93.711969 -55.837312 L 130.290094 54.662688 "
     transform="matrix(1, 0, 0, -1, 73.081, 57.983)"
     id="path16" />
  <path
     fill="none"
     stroke-width="0.3985"
     stroke-linecap="butt"
     stroke-linejoin="miter"
     stroke="rgb(89.99939%, 89.99939%, 89.99939%)"
     stroke-opacity="1"
     stroke-miterlimit="10"
     d="M 54.665094 -32.571687 L 130.290094 54.662688 "
     transform="matrix(1, 0, 0, -1, 73.081, 57.983)"
     id="path18" />
  <path
     fill="none"
     stroke-width="0.3985"
     stroke-linecap="butt"
     stroke-linejoin="miter"
     stroke="rgb(89.99939%, 89.99939%, 89.99939%)"
     stroke-opacity="1"
     stroke-miterlimit="10"
     d="M 24.294 -14.477937 L 130.290094 54.662688 "
     transform="matrix(1, 0, 0, -1, 73.081, 57.983)"
     id="path20" />
  <path
     fill="none"
     stroke-width="0.3985"
     stroke-linecap="butt"
     stroke-linejoin="miter"
     stroke="rgb(89.99939%, 89.99939%, 89.99939%)"
     stroke-opacity="1"
     stroke-miterlimit="10"
     d="M 0.00103125 -0.001375 L 130.290094 54.662688 "
     transform="matrix(1, 0, 0, -1, 73.081, 57.983)"
     id="path22" />
  <path
     fill="none"
     stroke-width="0.3985"
     stroke-linecap="butt"
     stroke-linejoin="miter"
     stroke="rgb(89.99939%, 89.99939%, 89.99939%)"
     stroke-opacity="1"
     stroke-miterlimit="10"
     d="M -19.873969 11.842375 L 130.290094 54.662688 "
     transform="matrix(1, 0, 0, -1, 73.081, 57.983)"
     id="path24" />
  <path
     fill="none"
     stroke-width="0.3985"
     stroke-linecap="butt"
     stroke-linejoin="miter"
     stroke="rgb(89.99939%, 89.99939%, 89.99939%)"
     stroke-opacity="1"
     stroke-miterlimit="10"
     d="M -36.436469 21.713469 L 130.290094 54.662688 "
     transform="matrix(1, 0, 0, -1, 73.081, 57.983)"
     id="path26" />
  <path
     fill="none"
     stroke-width="0.3985"
     stroke-linecap="butt"
     stroke-linejoin="miter"
     stroke="rgb(89.99939%, 89.99939%, 89.99939%)"
     stroke-opacity="1"
     stroke-miterlimit="10"
     d="M -50.456 30.065031 L 130.290094 54.662688 "
     transform="matrix(1, 0, 0, -1, 73.081, 57.983)"
     id="path28" />
  <path
     fill="none"
     stroke-width="0.3985"
     stroke-linecap="butt"
     stroke-linejoin="miter"
     stroke="rgb(89.99939%, 89.99939%, 89.99939%)"
     stroke-opacity="1"
     stroke-miterlimit="10"
     d="M -62.467719 37.221281 L 130.290094 54.662688 "
     transform="matrix(1, 0, 0, -1, 73.081, 57.983)"
     id="path30" />
  <path
     fill="none"
     stroke-width="0.3985"
     stroke-linecap="butt"
     stroke-linejoin="miter"
     stroke="rgb(89.99939%, 89.99939%, 89.99939%)"
     stroke-opacity="1"
     stroke-miterlimit="10"
     d="M -72.881781 43.428313 L 130.290094 54.662688 "
     transform="matrix(1, 0, 0, -1, 73.081, 57.983)"
     id="path32" />
  <g
     clip-path="url(#clip-1)"
     id="g36">
    <path
       fill="none"
       stroke-width="0.3985"
       stroke-linecap="butt"
       stroke-linejoin="miter"
       stroke="rgb(89.99939%, 89.99939%, 89.99939%)"
       stroke-opacity="1"
       stroke-miterlimit="10"
       d="M 218.653375 -130.286531 L -72.881781 43.428313 "
       transform="matrix(1, 0, 0, -1, 73.081, 57.983)"
       id="path34" />
  </g>
  <path
     fill="none"
     stroke-width="0.3985"
     stroke-linecap="butt"
     stroke-linejoin="miter"
     stroke="rgb(89.99939%, 89.99939%, 89.99939%)"
     stroke-opacity="1"
     stroke-miterlimit="10"
     d="M 200.067437 -91.356844 L -56.295844 44.346281 "
     transform="matrix(1, 0, 0, -1, 73.081, 57.983)"
     id="path38" />
  <path
     fill="none"
     stroke-width="0.3985"
     stroke-linecap="butt"
     stroke-linejoin="miter"
     stroke="rgb(89.99939%, 89.99939%, 89.99939%)"
     stroke-opacity="1"
     stroke-miterlimit="10"
     d="M 186.528375 -63.032625 L -40.377875 45.225188 "
     transform="matrix(1, 0, 0, -1, 73.081, 57.983)"
     id="path40" />
  <path
     fill="none"
     stroke-width="0.3985"
     stroke-linecap="butt"
     stroke-linejoin="miter"
     stroke="rgb(89.99939%, 89.99939%, 89.99939%)"
     stroke-opacity="1"
     stroke-miterlimit="10"
     d="M 176.247125 -41.513094 L -25.077094 46.065031 "
     transform="matrix(1, 0, 0, -1, 73.081, 57.983)"
     id="path42" />
  <path
     fill="none"
     stroke-width="0.3985"
     stroke-linecap="butt"
     stroke-linejoin="miter"
     stroke="rgb(89.99939%, 89.99939%, 89.99939%)"
     stroke-opacity="1"
     stroke-miterlimit="10"
     d="M 168.153375 -24.599031 L -10.370063 46.881438 "
     transform="matrix(1, 0, 0, -1, 73.081, 57.983)"
     id="path44" />
  <path
     fill="none"
     stroke-width="0.3985"
     stroke-linecap="butt"
     stroke-linejoin="miter"
     stroke="rgb(89.99939%, 89.99939%, 89.99939%)"
     stroke-opacity="1"
     stroke-miterlimit="10"
     d="M 161.633844 -10.962312 L 3.782281 47.666594 "
     transform="matrix(1, 0, 0, -1, 73.081, 57.983)"
     id="path46" />
  <path
     fill="none"
     stroke-width="0.3985"
     stroke-linecap="butt"
     stroke-linejoin="miter"
     stroke="rgb(89.99939%, 89.99939%, 89.99939%)"
     stroke-opacity="1"
     stroke-miterlimit="10"
     d="M 156.270562 0.268156 L 17.411187 48.416594 "
     transform="matrix(1, 0, 0, -1, 73.081, 57.983)"
     id="path48" />
  <path
     fill="none"
     stroke-width="0.3985"
     stroke-linecap="butt"
     stroke-linejoin="miter"
     stroke="rgb(89.99939%, 89.99939%, 89.99939%)"
     stroke-opacity="1"
     stroke-miterlimit="10"
     d="M 151.766656 9.678313 L 30.547906 49.143156 "
     transform="matrix(1, 0, 0, -1, 73.081, 57.983)"
     id="path50" />
  <path
     fill="none"
     stroke-width="0.3985"
     stroke-linecap="butt"
     stroke-linejoin="miter"
     stroke="rgb(89.99939%, 89.99939%, 89.99939%)"
     stroke-opacity="1"
     stroke-miterlimit="10"
     d="M 147.961969 17.674406 L 43.211969 49.846281 "
     transform="matrix(1, 0, 0, -1, 73.081, 57.983)"
     id="path52" />
  <path
     fill="none"
     stroke-width="0.3985"
     stroke-linecap="butt"
     stroke-linejoin="miter"
     stroke="rgb(89.99939%, 89.99939%, 89.99939%)"
     stroke-opacity="1"
     stroke-miterlimit="10"
     d="M 144.669 24.557219 L 55.434625 50.522063 "
     transform="matrix(1, 0, 0, -1, 73.081, 57.983)"
     id="path54" />
  <path
     fill="none"
     stroke-width="0.3985"
     stroke-linecap="butt"
     stroke-linejoin="miter"
     stroke="rgb(89.99939%, 89.99939%, 89.99939%)"
     stroke-opacity="1"
     stroke-miterlimit="10"
     d="M 141.809625 30.541594 L 67.2315 51.1705 "
     transform="matrix(1, 0, 0, -1, 73.081, 57.983)"
     id="path56" />
  <path
     fill="none"
     stroke-width="0.3985"
     stroke-linecap="butt"
     stroke-linejoin="miter"
     stroke="rgb(89.99939%, 89.99939%, 89.99939%)"
     stroke-opacity="1"
     stroke-miterlimit="10"
     d="M 139.313531 35.791594 L 78.63775 51.803313 "
     transform="matrix(1, 0, 0, -1, 73.081, 57.983)"
     id="path58" />
  <path
     fill="none"
     stroke-width="0.3985"
     stroke-linecap="butt"
     stroke-linejoin="miter"
     stroke="rgb(89.99939%, 89.99939%, 89.99939%)"
     stroke-opacity="1"
     stroke-miterlimit="10"
     d="M 137.07525 40.436125 L 89.657281 52.412688 "
     transform="matrix(1, 0, 0, -1, 73.081, 57.983)"
     id="path60" />
  <path
     fill="none"
     stroke-width="0.3985"
     stroke-linecap="butt"
     stroke-linejoin="miter"
     stroke="rgb(89.99939%, 89.99939%, 89.99939%)"
     stroke-opacity="1"
     stroke-miterlimit="10"
     d="M 135.102594 44.57675 L 100.309625 53.002531 "
     transform="matrix(1, 0, 0, -1, 73.081, 57.983)"
     id="path62" />
  <path
     fill="none"
     stroke-width="0.3985"
     stroke-linecap="butt"
     stroke-linejoin="miter"
     stroke="rgb(89.99939%, 89.99939%, 89.99939%)"
     stroke-opacity="1"
     stroke-miterlimit="10"
     d="M 133.329156 48.287688 L 110.626031 53.572844 "
     transform="matrix(1, 0, 0, -1, 73.081, 57.983)"
     id="path64" />
  <path
     fill="none"
     stroke-width="0.3985"
     stroke-linecap="butt"
     stroke-linejoin="miter"
     stroke="rgb(89.99939%, 89.99939%, 89.99939%)"
     stroke-opacity="1"
     stroke-miterlimit="10"
     d="M 131.735406 51.631438 L 120.6065 54.127531 "
     transform="matrix(1, 0, 0, -1, 73.081, 57.983)"
     id="path66" />
  <path
     fill="none"
     stroke-width="0.3985"
     stroke-linecap="butt"
     stroke-linejoin="miter"
     stroke="rgb(89.99939%, 89.99939%, 89.99939%)"
     stroke-opacity="1"
     stroke-miterlimit="10"
     d="M 130.290094 54.662688 L 130.290094 54.662688 "
     transform="matrix(1, 0, 0, -1, 73.081, 57.983)"
     id="path68" />
  <path
     fill="none"
     stroke-width="1.49442"
     stroke-linecap="butt"
     stroke-linejoin="miter"
     stroke="rgb(69.999695%, 19.999695%, 19.999695%)"
     stroke-opacity="1"
     stroke-miterlimit="10"
     d="M 93.708062 -55.837312 L 126.629937 43.611906 "
     transform="matrix(1, 0, 0, -1, 73.081, 57.983)"
     id="path70" />
  <path
     fill="none"
     stroke-width="0.99628"
     stroke-linecap="butt"
     stroke-linejoin="miter"
     stroke="rgb(69.999695%, 19.999695%, 19.999695%)"
     stroke-opacity="1"
     stroke-dasharray="0.99628 0.99628"
     stroke-miterlimit="10"
     d="M 126.629937 43.611906 L 130.286187 54.662688 "
     transform="matrix(1, 0, 0, -1, 73.081, 57.983)"
     id="path72" />
  <path
     fill="none"
     stroke-width="1.49442"
     stroke-linecap="butt"
     stroke-linejoin="miter"
     stroke="rgb(0%, 0%, 59.999084%)"
     stroke-opacity="1"
     stroke-miterlimit="10"
     d="M -19.873969 11.842375 L 115.270562 50.381438 "
     transform="matrix(1, 0, 0, -1, 73.081, 57.983)"
     id="path74" />
  <path
     fill="none"
     stroke-width="0.99628"
     stroke-linecap="butt"
     stroke-linejoin="miter"
     stroke="rgb(0%, 0%, 59.999084%)"
     stroke-opacity="1"
     stroke-dasharray="0.99628 0.99628"
     stroke-miterlimit="10"
     d="M 115.270562 50.381438 L 130.286187 54.662688 "
     transform="matrix(1, 0, 0, -1, 73.081, 57.983)"
     id="path76" />
</svg>
