<?xml version="1.0" encoding="UTF-8" standalone="no"?>
<svg
   width="397.249pt"
   height="142.131pt"
   viewBox="0 0 397.249 142.131"
   version="1.1"
   id="svg53"
   sodipodi:docname="singular.pdf"
   xmlns:inkscape="http://www.inkscape.org/namespaces/inkscape"
   xmlns:sodipodi="http://sodipodi.sourceforge.net/DTD/sodipodi-0.dtd"
   xmlns="http://www.w3.org/2000/svg"
   xmlns:svg="http://www.w3.org/2000/svg">
  <sodipodi:namedview
     id="namedview55"
     pagecolor="#ffffff"
     bordercolor="#666666"
     borderopacity="1.0"
     inkscape:showpageshadow="2"
     inkscape:pageopacity="0.0"
     inkscape:pagecheckerboard="0"
     inkscape:deskcolor="#d1d1d1"
     inkscape:document-units="pt" />
  <defs
     id="defs17">
    <clipPath
       id="clip-0">
      <path
         clip-rule="nonzero"
         d="M 99 0 L 100 0 L 100 142.132812 L 99 142.132812 Z M 99 0 "
         id="path2" />
    </clipPath>
    <clipPath
       id="clip-1">
      <path
         clip-rule="nonzero"
         d="M 0 49 L 149 49 L 149 142.132812 L 0 142.132812 Z M 0 49 "
         id="path5" />
    </clipPath>
    <clipPath
       id="clip-2">
      <path
         clip-rule="nonzero"
         d="M 395 69 L 397.25 69 L 397.25 73 L 395 73 Z M 395 69 "
         id="path8" />
    </clipPath>
    <clipPath
       id="clip-3">
      <path
         clip-rule="nonzero"
         d="M 325 0 L 327 0 L 327 142.132812 L 325 142.132812 Z M 325 0 "
         id="path11" />
    </clipPath>
    <clipPath
       id="clip-4">
      <path
         clip-rule="nonzero"
         d="M 305 49 L 396 49 L 396 142.132812 L 305 142.132812 Z M 305 49 "
         id="path14" />
    </clipPath>
  </defs>
  <path
     fill="none"
     stroke-width="0.3985"
     stroke-linecap="butt"
     stroke-linejoin="miter"
     stroke="rgb(50%, 50%, 50%)"
     stroke-opacity="1"
     stroke-miterlimit="10"
     d="M -99.212781 -0.00040625 L 42.060656 -0.00040625 "
     transform="matrix(1, 0, 0, -1, 99.412, 71.066)"
     id="path19" />
  <path
     fill="none"
     stroke-width="0.31879"
     stroke-linecap="round"
     stroke-linejoin="round"
     stroke="rgb(50%, 50%, 50%)"
     stroke-opacity="1"
     stroke-miterlimit="10"
     d="M -1.196576 1.593344 C -1.095014 0.995688 -0.00126375 0.101156 0.299517 -0.00040625 C -0.00126375 -0.0980625 -1.095014 -0.9965 -1.196576 -1.594156 "
     transform="matrix(1, 0, 0, -1, 141.47392, 71.066)"
     id="path21" />
  <g
     clip-path="url(#clip-0)"
     id="g25">
    <path
       fill="none"
       stroke-width="0.3985"
       stroke-linecap="butt"
       stroke-linejoin="miter"
       stroke="rgb(50%, 50%, 50%)"
       stroke-opacity="1"
       stroke-miterlimit="10"
       d="M -0.00184375 -70.867594 L -0.00184375 70.40975 "
       transform="matrix(1, 0, 0, -1, 99.412, 71.066)"
       id="path23" />
  </g>
  <path
     fill="none"
     stroke-width="0.31879"
     stroke-linecap="round"
     stroke-linejoin="round"
     stroke="rgb(50%, 50%, 50%)"
     stroke-opacity="1"
     stroke-miterlimit="10"
     d="M -1.194302 1.595594 C -1.096646 0.997938 0.00101 0.0995 0.297885 0.00184375 C 0.00101 -0.0997187 -1.096646 -0.998156 -1.194302 -1.595812 "
     transform="matrix(0, -1, -1, 0, 99.412, 0.65726)"
     id="path27" />
  <path
     fill="none"
     stroke-width="1.49442"
     stroke-linecap="butt"
     stroke-linejoin="miter"
     stroke="rgb(0%, 0%, 0%)"
     stroke-opacity="1"
     stroke-miterlimit="10"
     d="M -85.040906 -0.00040625 C -85.040906 -0.00040625 -84.767469 7.874594 -84.662 9.788656 C -84.556531 11.698813 -84.388563 12.808188 -84.283094 13.780844 C -84.177625 14.7535 -84.009656 16.03475 -83.904188 16.800375 C -83.798719 17.569906 -83.63075 18.663656 -83.525281 19.312094 C -83.419813 19.964438 -83.251844 20.921469 -83.146375 21.495688 C -83.040906 22.066 -82.872938 22.925375 -82.767469 23.441 C -82.662 23.952719 -82.494031 24.733969 -82.388563 25.202719 C -82.283094 25.671469 -82.115125 26.386313 -82.009656 26.816 C -81.904188 27.249594 -81.736219 27.913656 -81.63075 28.312094 C -81.525281 28.714438 -81.357313 29.331625 -81.251844 29.706625 C -81.146375 30.081625 -80.978406 30.65975 -80.872938 31.011313 C -80.767469 31.362875 -80.5995 31.905844 -80.494031 32.237875 C -80.388563 32.569906 -80.220594 33.081625 -80.115125 33.394125 C -80.009656 33.710531 -79.841688 34.194906 -79.736219 34.491781 C -79.63075 34.788656 -79.462781 35.2535 -79.357313 35.53475 C -79.251844 35.816 -79.083875 36.257406 -78.978406 36.523031 C -78.872938 36.792563 -78.704969 37.210531 -78.5995 37.468344 C -78.494031 37.72225 -78.326063 38.124594 -78.220594 38.366781 C -78.115125 38.612875 -77.947156 38.995688 -77.841688 39.230063 C -77.736219 39.460531 -77.56825 39.827719 -77.462781 40.050375 C -77.357313 40.273031 -77.189344 40.624594 -77.083875 40.839438 C -76.978406 41.054281 -76.810438 41.390219 -76.704969 41.59725 C -76.5995 41.800375 -76.431531 42.124594 -76.326063 42.319906 C -76.220594 42.515219 -76.052625 42.827719 -75.947156 43.015219 C -75.841688 43.206625 -75.673719 43.5035 -75.56825 43.683188 C -75.462781 43.866781 -75.294813 44.151938 -75.189344 44.323813 C -75.083875 44.499594 -74.915906 44.773031 -74.810438 44.941 C -74.704969 45.108969 -74.537 45.374594 -74.431531 45.53475 C -74.326063 45.694906 -74.158094 45.948813 -74.052625 46.105063 C -73.947156 46.261313 -73.779188 46.5035 -73.673719 46.651938 C -73.56825 46.800375 -73.400281 47.038656 -73.294813 47.179281 C -73.189344 47.323813 -73.021375 47.550375 -72.915906 47.687094 C -72.810438 47.823813 -72.642469 48.042563 -72.537 48.175375 C -72.431531 48.308188 -72.263563 48.515219 -72.158094 48.644125 C -72.052625 48.773031 -71.884656 48.97225 -71.779188 49.09725 C -71.673719 49.218344 -71.50575 49.40975 -71.400281 49.530844 C -71.294813 49.648031 -71.126844 49.831625 -71.021375 49.944906 C -70.915906 50.058188 -70.747938 50.237875 -70.642469 50.34725 C -70.537 50.456625 -70.369031 50.624594 -70.263563 50.730063 C -70.158094 50.835531 -69.990125 50.999594 -69.884656 51.101156 C -69.779188 51.198813 -69.611219 51.358969 -69.50575 51.452719 C -69.400281 51.550375 -69.232313 51.702719 -69.126844 51.792563 C -69.021375 51.886313 -68.853406 52.030844 -68.747938 52.120688 C -68.642469 52.206625 -68.4745 52.34725 -68.369031 52.433188 C -68.263563 52.515219 -68.095594 52.648031 -67.990125 52.730063 C -67.884656 52.812094 -67.716688 52.937094 -67.611219 53.015219 C -67.50575 53.093344 -67.337781 53.214438 -67.232313 53.288656 C -67.126844 53.362875 -66.958875 53.480063 -66.853406 53.550375 C -66.747938 53.620688 -66.579969 53.730063 -66.4745 53.796469 C -66.369031 53.862875 -66.201063 53.968344 -66.095594 54.03475 C -65.990125 54.09725 -65.822156 54.198813 -65.716688 54.257406 C -65.611219 54.319906 -65.44325 54.413656 -65.337781 54.47225 C -65.232313 54.530844 -65.064344 54.620688 -64.958875 54.675375 C -64.853406 54.730063 -64.685438 54.816 -64.579969 54.866781 C -64.4745 54.917563 -64.306531 54.999594 -64.201063 55.046469 C -64.095594 55.09725 -63.927625 55.171469 -63.822156 55.218344 C -63.716688 55.261313 -63.548719 55.335531 -63.44325 55.3785 C -63.337781 55.421469 -63.169813 55.487875 -63.064344 55.526938 C -62.958875 55.566 -62.790906 55.6285 -62.685438 55.667563 C -62.579969 55.706625 -62.412 55.761313 -62.306531 55.796469 C -62.201063 55.831625 -62.033094 55.886313 -61.927625 55.917563 C -61.822156 55.952719 -61.654188 55.999594 -61.548719 56.030844 C -61.44325 56.058188 -61.275281 56.105063 -61.169813 56.132406 C -61.064344 56.15975 -60.896375 56.202719 -60.790906 56.226156 C -60.685438 56.249594 -60.517469 56.288656 -60.412 56.312094 C -60.306531 56.331625 -60.138563 56.366781 -60.033094 56.386313 C -59.927625 56.405844 -59.759656 56.437094 -59.654188 56.452719 C -59.548719 56.47225 -59.38075 56.495688 -59.275281 56.511313 C -59.169813 56.526938 -59.001844 56.550375 -58.896375 56.562094 C -58.790906 56.573813 -58.622938 56.593344 -58.517469 56.605063 C -58.412 56.612875 -58.244031 56.6285 -58.138563 56.636313 C -58.033094 56.644125 -57.865125 56.655844 -57.759656 56.663656 C -57.654188 56.667563 -57.486219 56.675375 -57.38075 56.679281 C -57.275281 56.683188 -57.107313 56.687094 -57.001844 56.691 C -56.896375 56.691 -56.728406 56.694906 -56.622938 56.694906 C -56.517469 56.691 -56.3495 56.691 -56.244031 56.687094 C -56.138563 56.687094 -55.970594 56.679281 -55.865125 56.675375 C -55.759656 56.671469 -55.591688 56.663656 -55.486219 56.655844 C -55.38075 56.648031 -55.212781 56.636313 -55.107313 56.6285 C -55.001844 56.620688 -54.833875 56.605063 -54.728406 56.593344 C -54.622938 56.581625 -54.454969 56.566 -54.3495 56.550375 C -54.244031 56.538656 -54.076063 56.519125 -53.970594 56.5035 C -53.865125 56.487875 -53.697156 56.464438 -53.591688 56.448813 C -53.486219 56.429281 -53.31825 56.401938 -53.212781 56.386313 C -53.107313 56.366781 -52.939344 56.335531 -52.833875 56.316 C -52.728406 56.296469 -52.560438 56.261313 -52.454969 56.241781 C -52.3495 56.218344 -52.181531 56.179281 -52.076063 56.155844 C -51.970594 56.132406 -51.802625 56.093344 -51.697156 56.069906 C -51.591688 56.042563 -51.423719 55.999594 -51.31825 55.97225 C -51.212781 55.944906 -51.044813 55.898031 -50.939344 55.870688 C -50.833875 55.839438 -50.665906 55.792563 -50.560438 55.761313 C -50.454969 55.730063 -50.287 55.679281 -50.181531 55.648031 C -50.076063 55.616781 -49.908094 55.562094 -49.802625 55.526938 C -49.697156 55.491781 -49.529188 55.437094 -49.423719 55.398031 C -49.31825 55.362875 -49.150281 55.304281 -49.044813 55.265219 C -48.939344 55.230063 -48.771375 55.167563 -48.665906 55.1285 C -48.560438 55.089438 -48.392469 55.023031 -48.287 54.983969 C -48.181531 54.941 -48.013563 54.874594 -47.908094 54.831625 C -47.802625 54.788656 -47.634656 54.718344 -47.529188 54.675375 C -47.423719 54.632406 -47.25575 54.558188 -47.150281 54.511313 C -47.044813 54.464438 -46.876844 54.390219 -46.771375 54.343344 C -46.665906 54.296469 -46.497938 54.218344 -46.392469 54.171469 C -46.287 54.120688 -46.119031 54.042563 -46.013563 53.991781 C -45.908094 53.941 -45.740125 53.855063 -45.634656 53.804281 C -45.529188 53.7535 -45.361219 53.667563 -45.25575 53.612875 C -45.150281 53.562094 -44.982313 53.47225 -44.876844 53.417563 C -44.771375 53.362875 -44.603406 53.273031 -44.497938 53.214438 C -44.392469 53.15975 -44.2245 53.066 -44.119031 53.007406 C -44.013563 52.948813 -43.845594 52.855063 -43.740125 52.796469 C -43.634656 52.737875 -43.466688 52.640219 -43.361219 52.577719 C -43.25575 52.515219 -43.087781 52.417563 -42.982313 52.355063 C -42.876844 52.292563 -42.708875 52.191 -42.603406 52.1285 C -42.497938 52.062094 -42.329969 51.960531 -42.2245 51.894125 C -42.119031 51.827719 -41.951063 51.72225 -41.845594 51.655844 C -41.740125 51.589438 -41.572156 51.480063 -41.466688 51.40975 C -41.361219 51.343344 -41.19325 51.233969 -41.087781 51.163656 C -40.982313 51.093344 -40.814344 50.980063 -40.708875 50.90975 C -40.603406 50.835531 -40.435438 50.72225 -40.329969 50.648031 C -40.2245 50.577719 -40.056531 50.460531 -39.951063 50.386313 C -39.845594 50.312094 -39.677625 50.191 -39.572156 50.116781 C -39.466688 50.042563 -39.298719 49.921469 -39.19325 49.843344 C -39.087781 49.769125 -38.919813 49.644125 -38.814344 49.566 C -38.708875 49.487875 -38.540906 49.362875 -38.435438 49.280844 C -38.329969 49.202719 -38.162 49.073813 -38.056531 48.995688 C -37.951063 48.913656 -37.783094 48.78475 -37.677625 48.702719 C -37.572156 48.620688 -37.404188 48.487875 -37.298719 48.405844 C -37.19325 48.319906 -37.025281 48.187094 -36.919813 48.101156 C -36.814344 48.019125 -36.646375 47.882406 -36.540906 47.796469 C -36.435438 47.710531 -36.267469 47.573813 -36.162 47.483969 C -36.056531 47.398031 -35.888563 47.257406 -35.783094 47.167563 C -35.677625 47.081625 -35.509656 46.937094 -35.404188 46.84725 C -35.298719 46.761313 -35.13075 46.612875 -35.025281 46.523031 C -34.919813 46.433188 -34.751844 46.28475 -34.646375 46.194906 C -34.540906 46.101156 -34.372938 45.952719 -34.267469 45.858969 C -34.162 45.769125 -33.994031 45.616781 -33.888563 45.523031 C -33.783094 45.429281 -33.615125 45.276938 -33.509656 45.179281 C -33.404188 45.085531 -33.236219 44.929281 -33.13075 44.831625 C -33.025281 44.737875 -32.857313 44.581625 -32.751844 44.483969 C -32.646375 44.382406 -32.478406 44.226156 -32.372938 44.1285 C -32.267469 44.026938 -32.0995 43.866781 -31.994031 43.765219 C -31.888563 43.667563 -31.720594 43.5035 -31.615125 43.401938 C -31.509656 43.300375 -31.341688 43.136313 -31.236219 43.03475 C -31.13075 42.933188 -30.962781 42.765219 -30.857313 42.65975 C -30.751844 42.558188 -30.583875 42.390219 -30.478406 42.28475 C -30.372938 42.179281 -30.204969 42.011313 -30.0995 41.901938 C -29.994031 41.796469 -29.826063 41.624594 -29.720594 41.519125 C -29.615125 41.40975 -29.447156 41.237875 -29.341688 41.1285 C -29.236219 41.019125 -29.06825 40.84725 -28.962781 40.737875 C -28.857313 40.624594 -28.689344 40.448813 -28.583875 40.339438 C -28.478406 40.226156 -28.310438 40.050375 -28.204969 39.937094 C -28.0995 39.823813 -27.931531 39.644125 -27.826063 39.530844 C -27.720594 39.417563 -27.552625 39.237875 -27.447156 39.124594 C -27.341688 39.007406 -27.173719 38.823813 -27.06825 38.710531 C -26.962781 38.593344 -26.794813 38.40975 -26.689344 38.292563 C -26.583875 38.175375 -26.415906 37.987875 -26.310438 37.870688 C -26.204969 37.7535 -26.037 37.562094 -25.931531 37.444906 C -25.826063 37.327719 -25.658094 37.136313 -25.552625 37.015219 C -25.447156 36.898031 -25.279188 36.702719 -25.173719 36.585531 C -25.06825 36.464438 -24.900281 36.269125 -24.794813 36.148031 C -24.689344 36.026938 -24.521375 35.827719 -24.415906 35.706625 C -24.310438 35.581625 -24.142469 35.386313 -24.037 35.261313 C -23.931531 35.136313 -23.763563 34.937094 -23.658094 34.812094 C -23.552625 34.687094 -23.384656 34.487875 -23.279188 34.362875 C -23.173719 34.233969 -23.00575 34.030844 -22.900281 33.905844 C -22.794813 33.776938 -22.626844 33.573813 -22.521375 33.444906 C -22.415906 33.316 -22.247938 33.112875 -22.142469 32.983969 C -22.037 32.855063 -21.869031 32.644125 -21.763563 32.515219 C -21.658094 32.386313 -21.490125 32.175375 -21.384656 32.046469 C -21.279188 31.913656 -21.111219 31.702719 -21.00575 31.569906 C -20.900281 31.441 -20.732313 31.226156 -20.626844 31.093344 C -20.521375 30.960531 -20.353406 30.745688 -20.247938 30.612875 C -20.142469 30.476156 -19.9745 30.261313 -19.869031 30.124594 C -19.763563 29.991781 -19.595594 29.773031 -19.490125 29.636313 C -19.384656 29.5035 -19.216688 29.280844 -19.111219 29.144125 C -19.00575 29.007406 -18.837781 28.788656 -18.732313 28.651938 C -18.626844 28.511313 -18.458875 28.288656 -18.353406 28.151938 C -18.247938 28.011313 -18.079969 27.788656 -17.9745 27.648031 C -17.869031 27.507406 -17.701063 27.280844 -17.595594 27.140219 C -17.490125 26.999594 -17.322156 26.773031 -17.216688 26.632406 C -17.111219 26.487875 -16.94325 26.261313 -16.837781 26.116781 C -16.732313 25.976156 -16.564344 25.745688 -16.458875 25.601156 C -16.353406 25.456625 -16.185438 25.226156 -16.079969 25.081625 C -15.9745 24.933188 -15.806531 24.702719 -15.701063 24.558188 C -15.595594 24.40975 -15.427625 24.175375 -15.322156 24.030844 C -15.216688 23.882406 -15.048719 23.648031 -14.94325 23.499594 C -14.837781 23.351156 -14.669813 23.112875 -14.564344 22.964438 C -14.458875 22.816 -14.290906 22.577719 -14.185438 22.425375 C -14.079969 22.276938 -13.912 22.03475 -13.806531 21.886313 C -13.701063 21.733969 -13.533094 21.491781 -13.427625 21.343344 C -13.322156 21.191 -13.154188 20.948813 -13.048719 20.796469 C -12.94325 20.644125 -12.775281 20.398031 -12.669813 20.245688 C -12.564344 20.089438 -12.396375 19.843344 -12.290906 19.691 C -12.185438 19.53475 -12.017469 19.288656 -11.912 19.132406 C -11.806531 18.976156 -11.638563 18.726156 -11.533094 18.573813 C -11.427625 18.417563 -11.259656 18.163656 -11.154188 18.007406 C -11.048719 17.851156 -10.88075 17.59725 -10.775281 17.441 C -10.669813 17.280844 -10.501844 17.030844 -10.396375 16.870688 C -10.290906 16.710531 -10.122938 16.456625 -10.017469 16.296469 C -9.912 16.136313 -9.744031 15.882406 -9.638563 15.718344 C -9.533094 15.558188 -9.365125 15.300375 -9.259656 15.140219 C -9.154188 14.980063 -8.986219 14.718344 -8.88075 14.554281 C -8.775281 14.394125 -8.607313 14.132406 -8.501844 13.968344 C -8.396375 13.808188 -8.228406 13.542563 -8.122938 13.3785 C -8.017469 13.214438 -7.8495 12.952719 -7.744031 12.788656 C -7.638563 12.620688 -7.470594 12.358969 -7.365125 12.191 C -7.259656 12.026938 -7.091688 11.757406 -6.986219 11.593344 C -6.88075 11.425375 -6.712781 11.155844 -6.607313 10.991781 C -6.501844 10.823813 -6.333875 10.554281 -6.228406 10.386313 C -6.122938 10.218344 -5.954969 9.944906 -5.8495 9.776938 C -5.744031 9.605063 -5.576063 9.335531 -5.470594 9.163656 C -5.365125 8.995688 -5.197156 8.72225 -5.091688 8.550375 C -4.986219 8.3785 -4.81825 8.105063 -4.712781 7.933188 C -4.607313 7.761313 -4.439344 7.483969 -4.333875 7.312094 C -4.228406 7.136313 -4.060438 6.858969 -3.954969 6.687094 C -3.8495 6.515219 -3.681531 6.237875 -3.576063 6.062094 C -3.470594 5.890219 -3.302625 5.605063 -3.197156 5.429281 C -3.091688 5.2535 -2.923719 4.97225 -2.81825 4.796469 C -2.712781 4.620688 -2.544813 4.339438 -2.439344 4.163656 C -2.333875 3.987875 -2.165906 3.702719 -2.060438 3.523031 C -1.954969 3.34725 -1.787 3.058188 -1.681531 2.882406 C -1.576063 2.702719 -1.408094 2.417563 -1.302625 2.237875 C -1.197156 2.058188 -1.029188 1.765219 -0.923719 1.585531 C -0.81825 1.405844 -0.650281 1.120688 -0.544813 0.941 C -0.439344 0.757406 -0.271375 0.351156 -0.165906 0.269125 C -0.0604375 0.183188 0.107531 0.230063 0.213 0.335531 C 0.318469 0.437094 0.486437 0.827719 0.591906 1.015219 C 0.697375 1.198813 0.865344 1.491781 0.970812 1.679281 C 1.076281 1.862875 1.24425 2.163656 1.349719 2.351156 C 1.455187 2.538656 1.623156 2.831625 1.728625 3.019125 C 1.834094 3.202719 2.002062 3.5035 2.107531 3.691 C 2.213 3.8785 2.380969 4.179281 2.486437 4.366781 C 2.591906 4.554281 2.759875 4.855063 2.865344 5.042563 C 2.970812 5.230063 3.138781 5.53475 3.24425 5.72225 C 3.349719 5.913656 3.517687 6.214438 3.623156 6.405844 C 3.728625 6.593344 3.896594 6.901938 4.002062 7.093344 C 4.107531 7.280844 4.2755 7.589438 4.380969 7.780844 C 4.486437 7.97225 4.654406 8.276938 4.759875 8.468344 C 4.865344 8.663656 5.033312 8.97225 5.138781 9.163656 C 5.24425 9.355063 5.412219 9.667563 5.517687 9.858969 C 5.623156 10.054281 5.791125 10.362875 5.896594 10.558188 C 6.002062 10.7535 6.170031 11.066 6.2755 11.261313 C 6.380969 11.456625 6.548937 11.769125 6.654406 11.968344 C 6.759875 12.163656 6.927844 12.476156 7.033312 12.675375 C 7.138781 12.870688 7.30675 13.187094 7.412219 13.386313 C 7.517687 13.581625 7.685656 13.898031 7.791125 14.09725 C 7.896594 14.296469 8.064562 14.612875 8.170031 14.812094 C 8.2755 15.011313 8.443469 15.331625 8.548937 15.530844 C 8.654406 15.733969 8.822375 16.054281 8.927844 16.2535 C 9.033312 16.452719 9.201281 16.776938 9.30675 16.976156 C 9.412219 17.179281 9.580187 17.5035 9.685656 17.702719 C 9.791125 17.905844 9.959094 18.230063 10.064562 18.433188 C 10.170031 18.636313 10.338 18.960531 10.443469 19.163656 C 10.548937 19.370688 10.716906 19.694906 10.822375 19.901938 C 10.927844 20.105063 11.095812 20.433188 11.201281 20.636313 C 11.30675 20.843344 11.474719 21.171469 11.580187 21.3785 C 11.685656 21.585531 11.853625 21.913656 11.959094 22.120688 C 12.064562 22.327719 12.232531 22.65975 12.338 22.866781 C 12.443469 23.073813 12.611437 23.405844 12.716906 23.612875 C 12.822375 23.823813 12.990344 24.155844 13.095812 24.366781 C 13.201281 24.573813 13.36925 24.90975 13.474719 25.116781 C 13.580187 25.327719 13.748156 25.663656 13.853625 25.874594 C 13.959094 26.085531 14.127062 26.421469 14.232531 26.632406 C 14.338 26.843344 14.505969 27.183188 14.611437 27.394125 C 14.716906 27.605063 14.884875 27.944906 14.990344 28.15975 C 15.095812 28.370688 15.263781 28.710531 15.36925 28.925375 C 15.474719 29.136313 15.642687 29.480063 15.748156 29.694906 C 15.853625 29.90975 16.021594 30.249594 16.127062 30.464438 C 16.232531 30.679281 16.4005 31.023031 16.505969 31.237875 C 16.611437 31.452719 16.779406 31.800375 16.884875 32.015219 C 16.990344 32.233969 17.158312 32.577719 17.263781 32.796469 C 17.36925 33.011313 17.537219 33.358969 17.642687 33.577719 C 17.748156 33.796469 17.916125 34.144125 18.021594 34.362875 C 18.127062 34.577719 18.295031 34.929281 18.4005 35.148031 C 18.505969 35.366781 18.673937 35.718344 18.779406 35.937094 C 18.884875 36.155844 19.052844 36.511313 19.158312 36.730063 C 19.263781 36.948813 19.43175 37.304281 19.537219 37.523031 C 19.642687 37.745688 19.810656 38.101156 19.916125 38.319906 C 20.021594 38.542563 20.189562 38.898031 20.295031 39.120688 C 20.4005 39.343344 20.568469 39.698813 20.673937 39.921469 C 20.779406 40.148031 20.947375 40.5035 21.052844 40.726156 C 21.158312 40.952719 21.326281 41.312094 21.43175 41.53475 C 21.537219 41.757406 21.705187 42.116781 21.810656 42.343344 C 21.916125 42.569906 22.084094 42.929281 22.189562 43.155844 C 22.295031 43.382406 22.463 43.745688 22.568469 43.97225 C 22.673937 44.194906 22.841906 44.562094 22.947375 44.788656 C 23.052844 45.015219 23.220812 45.3785 23.326281 45.605063 C 23.43175 45.835531 23.599719 46.198813 23.705187 46.429281 C 23.810656 46.655844 23.978625 47.023031 24.084094 47.2535 C 24.189562 47.483969 24.357531 47.851156 24.463 48.077719 C 24.568469 48.308188 24.736437 48.679281 24.841906 48.90975 C 24.947375 49.140219 25.115344 49.511313 25.220812 49.741781 C 25.326281 49.97225 25.49425 50.343344 25.599719 50.573813 C 25.705187 50.804281 25.873156 51.179281 25.978625 51.40975 C 26.084094 51.644125 26.252062 52.015219 26.357531 52.249594 C 26.463 52.483969 26.630969 52.855063 26.736437 53.089438 C 26.841906 53.323813 27.009875 53.698813 27.115344 53.933188 C 27.220812 54.167563 27.388781 54.546469 27.49425 54.780844 C 27.599719 55.015219 27.767687 55.394125 27.873156 55.6285 C 27.978625 55.862875 28.252062 56.480063 28.252062 56.480063 "
     transform="matrix(1, 0, 0, -1, 99.412, 71.066)"
     id="path29" />
  <g
     clip-path="url(#clip-1)"
     id="g33">
    <path
       fill="none"
       stroke-width="1.49442"
       stroke-linecap="butt"
       stroke-linejoin="miter"
       stroke="rgb(0%, 0%, 0%)"
       stroke-opacity="1"
       stroke-miterlimit="10"
       d="M -85.040906 -0.00040625 C -85.040906 -0.00040625 -84.767469 -7.875406 -84.662 -9.789469 C -84.556531 -11.699625 -84.388563 -12.809 -84.283094 -13.781656 C -84.177625 -14.754312 -84.009656 -16.035562 -83.904188 -16.801187 C -83.798719 -17.570719 -83.63075 -18.660562 -83.525281 -19.312906 C -83.419813 -19.96525 -83.251844 -20.922281 -83.146375 -21.4965 C -83.040906 -22.066812 -82.872938 -22.926187 -82.767469 -23.437906 C -82.662 -23.953531 -82.494031 -24.730875 -82.388563 -25.199625 C -82.283094 -25.668375 -82.115125 -26.387125 -82.009656 -26.816812 C -81.904188 -27.250406 -81.736219 -27.910562 -81.63075 -28.312906 C -81.525281 -28.71525 -81.357313 -29.332437 -81.251844 -29.707437 C -81.146375 -30.078531 -80.978406 -30.660562 -80.872938 -31.012125 C -80.767469 -31.359781 -80.5995 -31.906656 -80.494031 -32.238687 C -80.388563 -32.566812 -80.220594 -33.082437 -80.115125 -33.394937 C -80.009656 -33.707437 -79.841688 -34.195719 -79.736219 -34.492594 C -79.63075 -34.789469 -79.462781 -35.250406 -79.357313 -35.535562 C -79.251844 -35.816812 -79.083875 -36.254312 -78.978406 -36.523844 C -78.872938 -36.793375 -78.704969 -37.211344 -78.5995 -37.469156 C -78.494031 -37.723062 -78.326063 -38.125406 -78.220594 -38.367594 C -78.115125 -38.613687 -77.947156 -38.9965 -77.841688 -39.226969 C -77.736219 -39.461344 -77.56825 -39.828531 -77.462781 -40.051187 C -77.357313 -40.273844 -77.189344 -40.625406 -77.083875 -40.84025 C -76.978406 -41.055094 -76.810438 -41.391031 -76.704969 -41.594156 C -76.5995 -41.801187 -76.431531 -42.1215 -76.326063 -42.320719 C -76.220594 -42.516031 -76.052625 -42.828531 -75.947156 -43.016031 C -75.841688 -43.203531 -75.673719 -43.500406 -75.56825 -43.684 C -75.462781 -43.863687 -75.294813 -44.148844 -75.189344 -44.324625 C -75.083875 -44.500406 -74.915906 -44.773844 -74.810438 -44.941812 C -74.704969 -45.109781 -74.537 -45.375406 -74.431531 -45.535562 C -74.326063 -45.695719 -74.158094 -45.949625 -74.052625 -46.105875 C -73.947156 -46.262125 -73.779188 -46.504312 -73.673719 -46.65275 C -73.56825 -46.801187 -73.400281 -47.035562 -73.294813 -47.180094 C -73.189344 -47.324625 -73.021375 -47.551187 -72.915906 -47.687906 C -72.810438 -47.824625 -72.642469 -48.043375 -72.537 -48.176187 C -72.431531 -48.309 -72.263563 -48.516031 -72.158094 -48.644937 C -72.052625 -48.773844 -71.884656 -48.973062 -71.779188 -49.094156 C -71.673719 -49.219156 -71.50575 -49.410562 -71.400281 -49.52775 C -71.294813 -49.648844 -71.126844 -49.832437 -71.021375 -49.945719 C -70.915906 -50.059 -70.747938 -50.238687 -70.642469 -50.344156 C -70.537 -50.453531 -70.369031 -50.625406 -70.263563 -50.730875 C -70.158094 -50.836344 -69.990125 -51.000406 -69.884656 -51.101969 C -69.779188 -51.199625 -69.611219 -51.359781 -69.50575 -51.453531 C -69.400281 -51.551187 -69.232313 -51.703531 -69.126844 -51.793375 C -69.021375 -51.887125 -68.853406 -52.031656 -68.747938 -52.1215 C -68.642469 -52.207437 -68.4745 -52.348062 -68.369031 -52.430094 C -68.263563 -52.516031 -68.095594 -52.648844 -67.990125 -52.730875 C -67.884656 -52.812906 -67.716688 -52.937906 -67.611219 -53.016031 C -67.50575 -53.094156 -67.337781 -53.21525 -67.232313 -53.289469 C -67.126844 -53.363687 -66.958875 -53.476969 -66.853406 -53.547281 C -66.747938 -53.6215 -66.579969 -53.730875 -66.4745 -53.797281 C -66.369031 -53.863687 -66.201063 -53.969156 -66.095594 -54.035562 C -65.990125 -54.098062 -65.822156 -54.199625 -65.716688 -54.258219 C -65.611219 -54.320719 -65.44325 -54.414469 -65.337781 -54.473062 C -65.232313 -54.531656 -65.064344 -54.6215 -64.958875 -54.676187 C -64.853406 -54.730875 -64.685438 -54.812906 -64.579969 -54.867594 C -64.4745 -54.918375 -64.306531 -54.9965 -64.201063 -55.047281 C -64.095594 -55.094156 -63.927625 -55.172281 -63.822156 -55.219156 C -63.716688 -55.262125 -63.548719 -55.336344 -63.44325 -55.379312 C -63.337781 -55.422281 -63.169813 -55.488687 -63.064344 -55.52775 C -62.958875 -55.566812 -62.790906 -55.629312 -62.685438 -55.668375 C -62.579969 -55.703531 -62.412 -55.762125 -62.306531 -55.797281 C -62.201063 -55.832437 -62.033094 -55.887125 -61.927625 -55.918375 C -61.822156 -55.949625 -61.654188 -56.000406 -61.548719 -56.031656 C -61.44325 -56.059 -61.275281 -56.105875 -61.169813 -56.133219 C -61.064344 -56.160562 -60.896375 -56.199625 -60.790906 -56.226969 C -60.685438 -56.250406 -60.517469 -56.289469 -60.412 -56.309 C -60.306531 -56.332437 -60.138563 -56.367594 -60.033094 -56.387125 C -59.927625 -56.406656 -59.759656 -56.434 -59.654188 -56.453531 C -59.548719 -56.469156 -59.38075 -56.4965 -59.275281 -56.512125 C -59.169813 -56.52775 -59.001844 -56.547281 -58.896375 -56.562906 C -58.790906 -56.574625 -58.622938 -56.594156 -58.517469 -56.601969 C -58.412 -56.613687 -58.244031 -56.629312 -58.138563 -56.637125 C -58.033094 -56.644937 -57.865125 -56.656656 -57.759656 -56.664469 C -57.654188 -56.668375 -57.486219 -56.676187 -57.38075 -56.680094 C -57.275281 -56.684 -57.107313 -56.687906 -57.001844 -56.691812 C -56.896375 -56.691812 -56.728406 -56.691812 -56.622938 -56.691812 C -56.517469 -56.691812 -56.3495 -56.691812 -56.244031 -56.687906 C -56.138563 -56.687906 -55.970594 -56.680094 -55.865125 -56.676187 C -55.759656 -56.672281 -55.591688 -56.660562 -55.486219 -56.656656 C -55.38075 -56.648844 -55.212781 -56.637125 -55.107313 -56.629312 C -55.001844 -56.6215 -54.833875 -56.605875 -54.728406 -56.594156 C -54.622938 -56.582437 -54.454969 -56.562906 -54.3495 -56.551187 C -54.244031 -56.539469 -54.076063 -56.516031 -53.970594 -56.504312 C -53.865125 -56.488687 -53.697156 -56.46525 -53.591688 -56.445719 C -53.486219 -56.430094 -53.31825 -56.40275 -53.212781 -56.387125 C -53.107313 -56.367594 -52.939344 -56.336344 -52.833875 -56.316812 C -52.728406 -56.297281 -52.560438 -56.262125 -52.454969 -56.238687 C -52.3495 -56.219156 -52.181531 -56.180094 -52.076063 -56.156656 C -51.970594 -56.133219 -51.802625 -56.094156 -51.697156 -56.066812 C -51.591688 -56.043375 -51.423719 -56.000406 -51.31825 -55.973062 C -51.212781 -55.945719 -51.044813 -55.898844 -50.939344 -55.8715 C -50.833875 -55.84025 -50.665906 -55.793375 -50.560438 -55.762125 C -50.454969 -55.730875 -50.287 -55.680094 -50.181531 -55.648844 C -50.076063 -55.613687 -49.908094 -55.562906 -49.802625 -55.52775 C -49.697156 -55.492594 -49.529188 -55.437906 -49.423719 -55.398844 C -49.31825 -55.363687 -49.150281 -55.305094 -49.044813 -55.266031 C -48.939344 -55.226969 -48.771375 -55.168375 -48.665906 -55.129312 C -48.560438 -55.09025 -48.392469 -55.023844 -48.287 -54.980875 C -48.181531 -54.941812 -48.013563 -54.875406 -47.908094 -54.832437 C -47.802625 -54.789469 -47.634656 -54.719156 -47.529188 -54.676187 C -47.423719 -54.629312 -47.25575 -54.559 -47.150281 -54.512125 C -47.044813 -54.46525 -46.876844 -54.391031 -46.771375 -54.344156 C -46.665906 -54.297281 -46.497938 -54.219156 -46.392469 -54.168375 C -46.287 -54.1215 -46.119031 -54.039469 -46.013563 -53.988687 C -45.908094 -53.937906 -45.740125 -53.855875 -45.634656 -53.805094 C -45.529188 -53.754312 -45.361219 -53.668375 -45.25575 -53.613687 C -45.150281 -53.559 -44.982313 -53.473062 -44.876844 -53.418375 C -44.771375 -53.363687 -44.603406 -53.273844 -44.497938 -53.21525 C -44.392469 -53.160562 -44.2245 -53.066812 -44.119031 -53.008219 C -44.013563 -52.949625 -43.845594 -52.855875 -43.740125 -52.797281 C -43.634656 -52.734781 -43.466688 -52.641031 -43.361219 -52.578531 C -43.25575 -52.516031 -43.087781 -52.418375 -42.982313 -52.355875 C -42.876844 -52.293375 -42.708875 -52.191812 -42.603406 -52.125406 C -42.497938 -52.062906 -42.329969 -51.957437 -42.2245 -51.894937 C -42.119031 -51.828531 -41.951063 -51.723062 -41.845594 -51.656656 C -41.740125 -51.586344 -41.572156 -51.480875 -41.466688 -51.410562 C -41.361219 -51.344156 -41.19325 -51.230875 -41.087781 -51.160562 C -40.982313 -51.094156 -40.814344 -50.980875 -40.708875 -50.906656 C -40.603406 -50.836344 -40.435438 -50.723062 -40.329969 -50.648844 C -40.2245 -50.578531 -40.056531 -50.461344 -39.951063 -50.387125 C -39.845594 -50.312906 -39.677625 -50.191812 -39.572156 -50.117594 C -39.466688 -50.043375 -39.298719 -49.922281 -39.19325 -49.844156 C -39.087781 -49.766031 -38.919813 -49.644937 -38.814344 -49.566812 C -38.708875 -49.488687 -38.540906 -49.359781 -38.435438 -49.281656 C -38.329969 -49.203531 -38.162 -49.074625 -38.056531 -48.9965 C -37.951063 -48.914469 -37.783094 -48.785562 -37.677625 -48.703531 C -37.572156 -48.6215 -37.404188 -48.488687 -37.298719 -48.406656 C -37.19325 -48.320719 -37.025281 -48.187906 -36.919813 -48.101969 C -36.814344 -48.019937 -36.646375 -47.883219 -36.540906 -47.797281 C -36.435438 -47.711344 -36.267469 -47.570719 -36.162 -47.484781 C -36.056531 -47.398844 -35.888563 -47.258219 -35.783094 -47.168375 C -35.677625 -47.082437 -35.509656 -46.937906 -35.404188 -46.848062 C -35.298719 -46.758219 -35.13075 -46.613687 -35.025281 -46.523844 C -34.919813 -46.434 -34.751844 -46.285562 -34.646375 -46.195719 C -34.540906 -46.101969 -34.372938 -45.953531 -34.267469 -45.859781 C -34.162 -45.766031 -33.994031 -45.617594 -33.888563 -45.523844 C -33.783094 -45.430094 -33.615125 -45.27775 -33.509656 -45.180094 C -33.404188 -45.086344 -33.236219 -44.930094 -33.13075 -44.832437 C -33.025281 -44.734781 -32.857313 -44.578531 -32.751844 -44.480875 C -32.646375 -44.383219 -32.478406 -44.226969 -32.372938 -44.125406 C -32.267469 -44.02775 -32.0995 -43.867594 -31.994031 -43.766031 C -31.888563 -43.664469 -31.720594 -43.504312 -31.615125 -43.40275 C -31.509656 -43.301187 -31.341688 -43.137125 -31.236219 -43.035562 C -31.13075 -42.930094 -30.962781 -42.766031 -30.857313 -42.660562 C -30.751844 -42.559 -30.583875 -42.391031 -30.478406 -42.285562 C -30.372938 -42.180094 -30.204969 -42.008219 -30.0995 -41.90275 C -29.994031 -41.797281 -29.826063 -41.625406 -29.720594 -41.519937 C -29.615125 -41.410562 -29.447156 -41.238687 -29.341688 -41.129312 C -29.236219 -41.019937 -29.06825 -40.844156 -28.962781 -40.734781 C -28.857313 -40.625406 -28.689344 -40.449625 -28.583875 -40.34025 C -28.478406 -40.226969 -28.310438 -40.047281 -28.204969 -39.937906 C -28.0995 -39.824625 -27.931531 -39.644937 -27.826063 -39.531656 C -27.720594 -39.418375 -27.552625 -39.238687 -27.447156 -39.1215 C -27.341688 -39.008219 -27.173719 -38.824625 -27.06825 -38.707437 C -26.962781 -38.594156 -26.794813 -38.406656 -26.689344 -38.293375 C -26.583875 -38.176187 -26.415906 -37.988687 -26.310438 -37.8715 C -26.204969 -37.754312 -26.037 -37.562906 -25.931531 -37.445719 C -25.826063 -37.328531 -25.658094 -37.137125 -25.552625 -37.016031 C -25.447156 -36.898844 -25.279188 -36.703531 -25.173719 -36.582437 C -25.06825 -36.461344 -24.900281 -36.269937 -24.794813 -36.144937 C -24.689344 -36.023844 -24.521375 -35.828531 -24.415906 -35.707437 C -24.310438 -35.582437 -24.142469 -35.387125 -24.037 -35.262125 C -23.931531 -35.137125 -23.763563 -34.937906 -23.658094 -34.812906 C -23.552625 -34.687906 -23.384656 -34.488687 -23.279188 -34.359781 C -23.173719 -34.234781 -23.00575 -34.031656 -22.900281 -33.906656 C -22.794813 -33.77775 -22.626844 -33.574625 -22.521375 -33.445719 C -22.415906 -33.316812 -22.247938 -33.113687 -22.142469 -32.980875 C -22.037 -32.851969 -21.869031 -32.644937 -21.763563 -32.516031 C -21.658094 -32.387125 -21.490125 -32.176187 -21.384656 -32.047281 C -21.279188 -31.914469 -21.111219 -31.703531 -21.00575 -31.570719 C -20.900281 -31.437906 -20.732313 -31.226969 -20.626844 -31.094156 C -20.521375 -30.961344 -20.353406 -30.7465 -20.247938 -30.609781 C -20.142469 -30.476969 -19.9745 -30.262125 -19.869031 -30.125406 C -19.763563 -29.992594 -19.595594 -29.773844 -19.490125 -29.637125 C -19.384656 -29.500406 -19.216688 -29.281656 -19.111219 -29.144937 C -19.00575 -29.008219 -18.837781 -28.789469 -18.732313 -28.648844 C -18.626844 -28.512125 -18.458875 -28.289469 -18.353406 -28.148844 C -18.247938 -28.012125 -18.079969 -27.785562 -17.9745 -27.648844 C -17.869031 -27.508219 -17.701063 -27.281656 -17.595594 -27.141031 C -17.490125 -27.000406 -17.322156 -26.773844 -17.216688 -26.629312 C -17.111219 -26.488687 -16.94325 -26.262125 -16.837781 -26.117594 C -16.732313 -25.973062 -16.564344 -25.7465 -16.458875 -25.601969 C -16.353406 -25.457437 -16.185438 -25.223062 -16.079969 -25.078531 C -15.9745 -24.934 -15.806531 -24.703531 -15.701063 -24.555094 C -15.595594 -24.410562 -15.427625 -24.176187 -15.322156 -24.02775 C -15.216688 -23.883219 -15.048719 -23.644937 -14.94325 -23.500406 C -14.837781 -23.351969 -14.669813 -23.113687 -14.564344 -22.96525 C -14.458875 -22.816812 -14.290906 -22.578531 -14.185438 -22.426187 C -14.079969 -22.27775 -13.912 -22.035562 -13.806531 -21.887125 C -13.701063 -21.734781 -13.533094 -21.492594 -13.427625 -21.344156 C -13.322156 -21.191812 -13.154188 -20.945719 -13.048719 -20.793375 C -12.94325 -20.641031 -12.775281 -20.398844 -12.669813 -20.242594 C -12.564344 -20.09025 -12.396375 -19.844156 -12.290906 -19.691812 C -12.185438 -19.535562 -12.017469 -19.289469 -11.912 -19.133219 C -11.806531 -18.976969 -11.638563 -18.726969 -11.533094 -18.570719 C -11.427625 -18.414469 -11.259656 -18.164469 -11.154188 -18.008219 C -11.048719 -17.851969 -10.88075 -17.598062 -10.775281 -17.441812 C -10.669813 -17.281656 -10.501844 -17.02775 -10.396375 -16.8715 C -10.290906 -16.711344 -10.122938 -16.457437 -10.017469 -16.297281 C -9.912 -16.137125 -9.744031 -15.879312 -9.638563 -15.719156 C -9.533094 -15.559 -9.365125 -15.301187 -9.259656 -15.141031 C -9.154188 -14.976969 -8.986219 -14.719156 -8.88075 -14.555094 C -8.775281 -14.394937 -8.607313 -14.133219 -8.501844 -13.969156 C -8.396375 -13.805094 -8.228406 -13.543375 -8.122938 -13.379312 C -8.017469 -13.21525 -7.8495 -12.953531 -7.744031 -12.785562 C -7.638563 -12.6215 -7.470594 -12.355875 -7.365125 -12.191812 C -7.259656 -12.023844 -7.091688 -11.758219 -6.986219 -11.59025 C -6.88075 -11.426187 -6.712781 -11.156656 -6.607313 -10.988687 C -6.501844 -10.820719 -6.333875 -10.555094 -6.228406 -10.387125 C -6.122938 -10.21525 -5.954969 -9.945719 -5.8495 -9.773844 C -5.744031 -9.605875 -5.576063 -9.332437 -5.470594 -9.164469 C -5.365125 -8.992594 -5.197156 -8.723062 -5.091688 -8.551187 C -4.986219 -8.379312 -4.81825 -8.105875 -4.712781 -7.934 C -4.607313 -7.762125 -4.439344 -7.484781 -4.333875 -7.309 C -4.228406 -7.137125 -4.060438 -6.859781 -3.954969 -6.687906 C -3.8495 -6.516031 -3.681531 -6.238687 -3.576063 -6.062906 C -3.470594 -5.887125 -3.302625 -5.605875 -3.197156 -5.430094 C -3.091688 -5.254312 -2.923719 -4.973062 -2.81825 -4.797281 C -2.712781 -4.6215 -2.544813 -4.34025 -2.439344 -4.164469 C -2.333875 -3.988687 -2.165906 -3.703531 -2.060438 -3.523844 C -1.954969 -3.348062 -1.787 -3.059 -1.681531 -2.879312 C -1.576063 -2.703531 -1.408094 -2.418375 -1.302625 -2.238687 C -1.197156 -2.059 -1.029188 -1.766031 -0.923719 -1.586344 C -0.81825 -1.406656 -0.650281 -1.1215 -0.544813 -0.941812 C -0.439344 -0.758219 -0.271375 -0.351969 -0.165906 -0.269937 C -0.0604375 -0.184 0.107531 -0.230875 0.213 -0.336344 C 0.318469 -0.437906 0.486437 -0.828531 0.591906 -1.012125 C 0.697375 -1.199625 0.865344 -1.492594 0.970812 -1.680094 C 1.076281 -1.863687 1.24425 -2.164469 1.349719 -2.351969 C 1.455187 -2.535562 1.623156 -2.832437 1.728625 -3.019937 C 1.834094 -3.203531 2.002062 -3.504312 2.107531 -3.691812 C 2.213 -3.879312 2.380969 -4.180094 2.486437 -4.367594 C 2.591906 -4.555094 2.759875 -4.855875 2.865344 -5.043375 C 2.970812 -5.230875 3.138781 -5.535562 3.24425 -5.723062 C 3.349719 -5.910562 3.517687 -6.21525 3.623156 -6.406656 C 3.728625 -6.594156 3.896594 -6.898844 4.002062 -7.09025 C 4.107531 -7.281656 4.2755 -7.59025 4.380969 -7.77775 C 4.486437 -7.969156 4.654406 -8.27775 4.759875 -8.469156 C 4.865344 -8.660562 5.033312 -8.969156 5.138781 -9.164469 C 5.24425 -9.355875 5.412219 -9.664469 5.517687 -9.859781 C 5.623156 -10.055094 5.791125 -10.363687 5.896594 -10.559 C 6.002062 -10.754312 6.170031 -11.066812 6.2755 -11.262125 C 6.380969 -11.457437 6.548937 -11.769937 6.654406 -11.96525 C 6.759875 -12.164469 6.927844 -12.476969 7.033312 -12.672281 C 7.138781 -12.8715 7.30675 -13.187906 7.412219 -13.383219 C 7.517687 -13.582437 7.685656 -13.898844 7.791125 -14.098062 C 7.896594 -14.297281 8.064562 -14.613687 8.170031 -14.812906 C 8.2755 -15.012125 8.443469 -15.332437 8.548937 -15.531656 C 8.654406 -15.730875 8.822375 -16.055094 8.927844 -16.254312 C 9.033312 -16.453531 9.201281 -16.77775 9.30675 -16.976969 C 9.412219 -17.180094 9.580187 -17.500406 9.685656 -17.703531 C 9.791125 -17.906656 9.959094 -18.230875 10.064562 -18.434 C 10.170031 -18.637125 10.338 -18.961344 10.443469 -19.164469 C 10.548937 -19.367594 10.716906 -19.695719 10.822375 -19.90275 C 10.927844 -20.105875 11.095812 -20.434 11.201281 -20.637125 C 11.30675 -20.844156 11.474719 -21.172281 11.580187 -21.379312 C 11.685656 -21.582437 11.853625 -21.914469 11.959094 -22.1215 C 12.064562 -22.328531 12.232531 -22.660562 12.338 -22.867594 C 12.443469 -23.074625 12.611437 -23.406656 12.716906 -23.613687 C 12.822375 -23.824625 12.990344 -24.156656 13.095812 -24.363687 C 13.201281 -24.574625 13.36925 -24.910562 13.474719 -25.117594 C 13.580187 -25.328531 13.748156 -25.664469 13.853625 -25.875406 C 13.959094 -26.086344 14.127062 -26.422281 14.232531 -26.633219 C 14.338 -26.844156 14.505969 -27.184 14.611437 -27.394937 C 14.716906 -27.605875 14.884875 -27.945719 14.990344 -28.156656 C 15.095812 -28.3715 15.263781 -28.711344 15.36925 -28.926187 C 15.474719 -29.137125 15.642687 -29.480875 15.748156 -29.695719 C 15.853625 -29.906656 16.021594 -30.250406 16.127062 -30.46525 C 16.232531 -30.680094 16.4005 -31.023844 16.505969 -31.238687 C 16.611437 -31.453531 16.779406 -31.801187 16.884875 -32.016031 C 16.990344 -32.230875 17.158312 -32.578531 17.263781 -32.797281 C 17.36925 -33.012125 17.537219 -33.359781 17.642687 -33.578531 C 17.748156 -33.793375 17.916125 -34.144937 18.021594 -34.359781 C 18.127062 -34.578531 18.295031 -34.930094 18.4005 -35.148844 C 18.505969 -35.367594 18.673937 -35.719156 18.779406 -35.937906 C 18.884875 -36.156656 19.052844 -36.508219 19.158312 -36.730875 C 19.263781 -36.949625 19.43175 -37.305094 19.537219 -37.523844 C 19.642687 -37.7465 19.810656 -38.101969 19.916125 -38.320719 C 20.021594 -38.543375 20.189562 -38.898844 20.295031 -39.1215 C 20.4005 -39.344156 20.568469 -39.699625 20.673937 -39.922281 C 20.779406 -40.144937 20.947375 -40.504312 21.052844 -40.726969 C 21.158312 -40.949625 21.326281 -41.309 21.43175 -41.535562 C 21.537219 -41.758219 21.705187 -42.117594 21.810656 -42.344156 C 21.916125 -42.566812 22.084094 -42.930094 22.189562 -43.156656 C 22.295031 -43.383219 22.463 -43.742594 22.568469 -43.969156 C 22.673937 -44.195719 22.841906 -44.559 22.947375 -44.789469 C 23.052844 -45.016031 23.220812 -45.379312 23.326281 -45.605875 C 23.43175 -45.836344 23.599719 -46.199625 23.705187 -46.430094 C 23.810656 -46.656656 23.978625 -47.023844 24.084094 -47.254312 C 24.189562 -47.480875 24.357531 -47.848062 24.463 -48.078531 C 24.568469 -48.309 24.736437 -48.680094 24.841906 -48.910562 C 24.947375 -49.141031 25.115344 -49.508219 25.220812 -49.738687 C 25.326281 -49.973062 25.49425 -50.344156 25.599719 -50.574625 C 25.705187 -50.805094 25.873156 -51.176187 25.978625 -51.410562 C 26.084094 -51.641031 26.252062 -52.016031 26.357531 -52.250406 C 26.463 -52.480875 26.630969 -52.855875 26.736437 -53.09025 C 26.841906 -53.324625 27.009875 -53.699625 27.115344 -53.934 C 27.220812 -54.168375 27.388781 -54.543375 27.49425 -54.781656 C 27.599719 -55.016031 27.767687 -55.391031 27.873156 -55.629312 C 27.978625 -55.863687 28.252062 -56.480875 28.252062 -56.480875 "
       transform="matrix(1, 0, 0, -1, 99.412, 71.066)"
       id="path31" />
  </g>
  <path
     fill="none"
     stroke-width="0.3985"
     stroke-linecap="butt"
     stroke-linejoin="miter"
     stroke="rgb(50%, 50%, 50%)"
     stroke-opacity="1"
     stroke-miterlimit="10"
     d="M 155.908312 -0.00040625 L 297.18175 -0.00040625 "
     transform="matrix(1, 0, 0, -1, 99.412, 71.066)"
     id="path35" />
  <g
     clip-path="url(#clip-2)"
     id="g39">
    <path
       fill="none"
       stroke-width="0.31879"
       stroke-linecap="round"
       stroke-linejoin="round"
       stroke="rgb(50%, 50%, 50%)"
       stroke-opacity="1"
       stroke-miterlimit="10"
       d="M -1.196772 1.593344 C -1.09521 0.995688 -0.00146 0.101156 0.299321 -0.00040625 C -0.00146 -0.0980625 -1.09521 -0.9965 -1.196772 -1.594156 "
       transform="matrix(1, 0, 0, -1, 396.59521, 71.066)"
       id="path37" />
  </g>
  <g
     clip-path="url(#clip-3)"
     id="g43">
    <path
       fill="none"
       stroke-width="0.3985"
       stroke-linecap="butt"
       stroke-linejoin="miter"
       stroke="rgb(50%, 50%, 50%)"
       stroke-opacity="1"
       stroke-miterlimit="10"
       d="M 226.7755 -70.867594 L 226.7755 70.40975 "
       transform="matrix(1, 0, 0, -1, 99.412, 71.066)"
       id="path41" />
  </g>
  <path
     fill="none"
     stroke-width="0.31879"
     stroke-linecap="round"
     stroke-linejoin="round"
     stroke="rgb(50%, 50%, 50%)"
     stroke-opacity="1"
     stroke-miterlimit="10"
     d="M -1.194302 1.59273 C -1.096646 0.995074 0.00101 0.100542 0.297885 -0.00102 C 0.00101 -0.0986763 -1.096646 -0.997114 -1.194302 -1.59477 "
     transform="matrix(0, -1, -1, 0, 326.18648, 0.65726)"
     id="path45" />
  <path
     fill="none"
     stroke-width="1.49442"
     stroke-linecap="butt"
     stroke-linejoin="miter"
     stroke="rgb(0%, 0%, 0%)"
     stroke-opacity="1"
     stroke-miterlimit="10"
     d="M 226.7755 -0.00040625 C 226.7755 -0.00040625 226.888781 -0.00040625 226.935656 -0.00040625 C 226.978625 -0.00040625 227.052844 -0.00040625 227.095812 -0.00040625 C 227.142687 -0.00040625 227.213 -0.00040625 227.255969 -0.00040625 C 227.302844 -0.00040625 227.373156 -0.0160312 227.420031 -0.00040625 C 227.463 0.019125 227.533312 0.105063 227.580187 0.1285 C 227.623156 0.148031 227.693469 0.140219 227.740344 0.155844 C 227.783312 0.167563 227.857531 0.202719 227.9005 0.218344 C 227.947375 0.233969 228.017687 0.257406 228.060656 0.269125 C 228.107531 0.280844 228.177844 0.296469 228.220812 0.312094 C 228.267687 0.323813 228.338 0.351156 228.384875 0.370688 C 228.427844 0.386313 228.498156 0.413656 228.545031 0.429281 C 228.588 0.444906 228.662219 0.47225 228.705187 0.491781 C 228.748156 0.511313 228.822375 0.546469 228.865344 0.566 C 228.912219 0.585531 228.982531 0.608969 229.0255 0.6285 C 229.072375 0.644125 229.142687 0.679281 229.189562 0.698813 C 229.232531 0.72225 229.302844 0.757406 229.349719 0.776938 C 229.392687 0.796469 229.466906 0.827719 229.509875 0.84725 C 229.552844 0.866781 229.627062 0.898031 229.670031 0.917563 C 229.716906 0.941 229.787219 0.980063 229.830187 1.0035 C 229.877062 1.023031 229.947375 1.058188 229.99425 1.077719 C 230.037219 1.101156 230.107531 1.140219 230.154406 1.163656 C 230.197375 1.187094 230.271594 1.226156 230.314562 1.249594 C 230.357531 1.273031 230.43175 1.308188 230.474719 1.331625 C 230.521594 1.355063 230.591906 1.398031 230.634875 1.421469 C 230.68175 1.448813 230.752062 1.487875 230.798937 1.511313 C 230.841906 1.538656 230.912219 1.577719 230.959094 1.605063 C 231.002062 1.6285 231.072375 1.671469 231.11925 1.698813 C 231.162219 1.726156 231.236437 1.769125 231.279406 1.796469 C 231.326281 1.823813 231.396594 1.866781 231.439562 1.894125 C 231.486437 1.921469 231.55675 1.960531 231.599719 1.991781 C 231.646594 2.019125 231.716906 2.066 231.763781 2.093344 C 231.80675 2.120688 231.877062 2.163656 231.923937 2.191 C 231.966906 2.218344 232.041125 2.265219 232.084094 2.296469 C 232.127062 2.323813 232.201281 2.370688 232.24425 2.401938 C 232.291125 2.429281 232.361437 2.476156 232.404406 2.507406 C 232.451281 2.538656 232.521594 2.585531 232.568469 2.616781 C 232.611437 2.648031 232.68175 2.694906 232.728625 2.726156 C 232.771594 2.757406 232.845812 2.808188 232.888781 2.839438 C 232.93175 2.870688 233.005969 2.917563 233.048937 2.948813 C 233.095812 2.980063 233.166125 3.03475 233.209094 3.066 C 233.255969 3.09725 233.326281 3.148031 233.373156 3.179281 C 233.416125 3.214438 233.486437 3.265219 233.533312 3.296469 C 233.576281 3.327719 233.6505 3.382406 233.693469 3.417563 C 233.736437 3.448813 233.810656 3.5035 233.853625 3.538656 C 233.9005 3.569906 233.970812 3.624594 234.013781 3.655844 C 234.060656 3.691 234.130969 3.745688 234.177844 3.780844 C 234.220812 3.816 234.291125 3.870688 234.338 3.905844 C 234.380969 3.941 234.451281 3.995688 234.498156 4.030844 C 234.541125 4.066 234.615344 4.120688 234.658312 4.155844 C 234.705187 4.191 234.7755 4.249594 234.818469 4.28475 C 234.865344 4.319906 234.935656 4.3785 234.982531 4.413656 C 235.0255 4.448813 235.095812 4.507406 235.142687 4.546469 C 235.185656 4.581625 235.255969 4.640219 235.302844 4.675375 C 235.345812 4.714438 235.420031 4.773031 235.463 4.812094 C 235.509875 4.84725 235.580187 4.905844 235.623156 4.944906 C 235.670031 4.980063 235.740344 5.038656 235.783312 5.077719 C 235.830187 5.116781 235.9005 5.179281 235.947375 5.214438 C 235.990344 5.2535 236.060656 5.316 236.107531 5.355063 C 236.1505 5.394125 236.224719 5.452719 236.267687 5.491781 C 236.310656 5.530844 236.384875 5.593344 236.427844 5.632406 C 236.474719 5.671469 236.545031 5.733969 236.588 5.773031 C 236.634875 5.812094 236.705187 5.8785 236.752062 5.917563 C 236.795031 5.956625 236.865344 6.019125 236.912219 6.062094 C 236.955187 6.101156 237.029406 6.167563 237.072375 6.206625 C 237.115344 6.245688 237.189562 6.312094 237.232531 6.351156 C 237.279406 6.394125 237.349719 6.456625 237.392687 6.499594 C 237.439562 6.538656 237.509875 6.605063 237.55675 6.648031 C 237.599719 6.691 237.670031 6.757406 237.716906 6.796469 C 237.759875 6.839438 237.834094 6.905844 237.877062 6.948813 C 237.920031 6.987875 237.99425 7.054281 238.037219 7.09725 C 238.084094 7.140219 238.154406 7.210531 238.197375 7.249594 C 238.24425 7.292563 238.314562 7.362875 238.361437 7.405844 C 238.404406 7.448813 238.474719 7.519125 238.521594 7.562094 C 238.564562 7.605063 238.634875 7.671469 238.68175 7.718344 C 238.724719 7.761313 238.798937 7.831625 238.841906 7.874594 C 238.888781 7.917563 238.959094 7.987875 239.002062 8.030844 C 239.048937 8.073813 239.11925 8.144125 239.162219 8.191 C 239.209094 8.233969 239.279406 8.304281 239.326281 8.351156 C 239.36925 8.394125 239.439562 8.468344 239.486437 8.511313 C 239.529406 8.558188 239.603625 8.6285 239.646594 8.675375 C 239.689562 8.718344 239.763781 8.792563 239.80675 8.835531 C 239.853625 8.882406 239.923937 8.956625 239.966906 8.999594 C 240.013781 9.046469 240.084094 9.120688 240.130969 9.167563 C 240.173937 9.210531 240.24425 9.28475 240.291125 9.331625 C 240.334094 9.3785 240.408312 9.452719 240.451281 9.499594 C 240.49425 9.546469 240.568469 9.620688 240.611437 9.667563 C 240.658312 9.714438 240.728625 9.788656 240.771594 9.835531 C 240.818469 9.882406 240.888781 9.960531 240.935656 10.007406 C 240.978625 10.054281 241.048937 10.1285 241.095812 10.179281 C 241.138781 10.226156 241.213 10.304281 241.255969 10.351156 C 241.298937 10.398031 241.373156 10.476156 241.416125 10.523031 C 241.463 10.569906 241.533312 10.648031 241.576281 10.698813 C 241.623156 10.745688 241.693469 10.823813 241.740344 10.870688 C 241.783312 10.921469 241.853625 10.999594 241.9005 11.046469 C 241.943469 11.09725 242.013781 11.175375 242.060656 11.22225 C 242.103625 11.273031 242.177844 11.351156 242.220812 11.401938 C 242.267687 11.452719 242.338 11.530844 242.380969 11.581625 C 242.427844 11.6285 242.498156 11.710531 242.545031 11.761313 C 242.588 11.812094 242.658312 11.890219 242.705187 11.941 C 242.748156 11.991781 242.818469 12.069906 242.865344 12.120688 C 242.908312 12.171469 242.982531 12.2535 243.0255 12.304281 C 243.072375 12.355063 243.142687 12.437094 243.185656 12.487875 C 243.232531 12.538656 243.302844 12.620688 243.345812 12.671469 C 243.392687 12.72225 243.463 12.804281 243.509875 12.858969 C 243.552844 12.90975 243.623156 12.991781 243.670031 13.042563 C 243.713 13.093344 243.787219 13.175375 243.830187 13.230063 C 243.873156 13.280844 243.947375 13.362875 243.990344 13.417563 C 244.037219 13.468344 244.107531 13.554281 244.1505 13.605063 C 244.197375 13.65975 244.267687 13.741781 244.314562 13.796469 C 244.357531 13.84725 244.427844 13.933188 244.474719 13.983969 C 244.517687 14.038656 244.591906 14.124594 244.634875 14.175375 C 244.677844 14.230063 244.752062 14.316 244.795031 14.366781 C 244.841906 14.421469 244.912219 14.507406 244.955187 14.562094 C 245.002062 14.616781 245.072375 14.702719 245.11925 14.7535 C 245.162219 14.808188 245.232531 14.894125 245.279406 14.948813 C 245.322375 15.0035 245.396594 15.089438 245.439562 15.144125 C 245.482531 15.198813 245.55675 15.288656 245.599719 15.343344 C 245.646594 15.398031 245.716906 15.483969 245.759875 15.538656 C 245.80675 15.593344 245.877062 15.679281 245.923937 15.737875 C 245.966906 15.792563 246.037219 15.8785 246.084094 15.933188 C 246.127062 15.991781 246.197375 16.077719 246.24425 16.136313 C 246.287219 16.191 246.361437 16.280844 246.404406 16.335531 C 246.451281 16.390219 246.521594 16.480063 246.564562 16.53475 C 246.611437 16.593344 246.68175 16.683188 246.724719 16.737875 C 246.771594 16.796469 246.841906 16.886313 246.888781 16.941 C 246.93175 16.999594 247.002062 17.089438 247.048937 17.144125 C 247.091906 17.202719 247.166125 17.292563 247.209094 17.351156 C 247.252062 17.405844 247.326281 17.499594 247.36925 17.554281 C 247.416125 17.612875 247.486437 17.702719 247.529406 17.761313 C 247.576281 17.819906 247.646594 17.90975 247.693469 17.968344 C 247.736437 18.026938 247.80675 18.116781 247.853625 18.175375 C 247.896594 18.233969 247.970812 18.327719 248.013781 18.386313 C 248.05675 18.441 248.130969 18.53475 248.173937 18.593344 C 248.220812 18.651938 248.291125 18.745688 248.334094 18.804281 C 248.380969 18.862875 248.451281 18.956625 248.498156 19.015219 C 248.541125 19.073813 248.611437 19.167563 248.658312 19.226156 C 248.701281 19.28475 248.7755 19.3785 248.818469 19.437094 C 248.861437 19.499594 248.935656 19.593344 248.978625 19.651938 C 249.0255 19.710531 249.095812 19.808188 249.138781 19.866781 C 249.185656 19.925375 249.255969 20.019125 249.302844 20.081625 C 249.345812 20.140219 249.416125 20.237875 249.463 20.296469 C 249.505969 20.355063 249.576281 20.452719 249.623156 20.511313 C 249.666125 20.573813 249.740344 20.667563 249.783312 20.730063 C 249.830187 20.788656 249.9005 20.886313 249.943469 20.948813 C 249.990344 21.007406 250.060656 21.105063 250.103625 21.167563 C 250.1505 21.226156 250.220812 21.323813 250.267687 21.386313 C 250.310656 21.444906 250.380969 21.542563 250.427844 21.605063 C 250.470812 21.667563 250.545031 21.765219 250.588 21.827719 C 250.634875 21.886313 250.705187 21.987875 250.748156 22.046469 C 250.795031 22.108969 250.865344 22.206625 250.908312 22.269125 C 250.955187 22.331625 251.0255 22.429281 251.072375 22.491781 C 251.115344 22.554281 251.185656 22.655844 251.232531 22.718344 C 251.2755 22.780844 251.349719 22.8785 251.392687 22.941 C 251.435656 23.0035 251.509875 23.105063 251.552844 23.167563 C 251.599719 23.230063 251.670031 23.331625 251.713 23.394125 C 251.759875 23.456625 251.830187 23.558188 251.877062 23.620688 C 251.920031 23.683188 251.990344 23.78475 252.037219 23.84725 C 252.080187 23.90975 252.154406 24.011313 252.197375 24.073813 C 252.240344 24.140219 252.314562 24.241781 252.357531 24.304281 C 252.404406 24.366781 252.474719 24.468344 252.517687 24.53475 C 252.564562 24.59725 252.634875 24.698813 252.68175 24.765219 C 252.724719 24.827719 252.795031 24.933188 252.841906 24.995688 C 252.884875 25.058188 252.959094 25.163656 253.002062 25.226156 C 253.045031 25.292563 253.11925 25.394125 253.162219 25.460531 C 253.209094 25.523031 253.279406 25.6285 253.322375 25.694906 C 253.36925 25.757406 253.439562 25.862875 253.486437 25.925375 C 253.529406 25.991781 253.599719 26.09725 253.646594 26.15975 C 253.689562 26.226156 253.759875 26.331625 253.80675 26.398031 C 253.849719 26.464438 253.923937 26.566 253.966906 26.632406 C 254.013781 26.698813 254.084094 26.804281 254.127062 26.870688 C 254.173937 26.937094 254.24425 27.042563 254.287219 27.108969 C 254.334094 27.171469 254.404406 27.280844 254.451281 27.34725 C 254.49425 27.413656 254.564562 27.519125 254.611437 27.585531 C 254.654406 27.651938 254.728625 27.757406 254.771594 27.823813 C 254.814562 27.890219 254.888781 27.995688 254.93175 28.062094 C 254.978625 28.132406 255.048937 28.237875 255.091906 28.304281 C 255.138781 28.370688 255.209094 28.480063 255.255969 28.546469 C 255.298937 28.612875 255.36925 28.72225 255.416125 28.788656 C 255.459094 28.855063 255.533312 28.964438 255.576281 29.030844 C 255.61925 29.09725 255.693469 29.206625 255.736437 29.276938 C 255.783312 29.343344 255.853625 29.452719 255.896594 29.519125 C 255.943469 29.585531 256.013781 29.694906 256.060656 29.765219 C 256.103625 29.831625 256.173937 29.941 256.220812 30.011313 C 256.263781 30.077719 256.338 30.187094 256.380969 30.257406 C 256.423937 30.323813 256.498156 30.437094 256.541125 30.5035 C 256.588 30.573813 256.658312 30.683188 256.701281 30.749594 C 256.748156 30.819906 256.818469 30.929281 256.865344 30.999594 C 256.908312 31.069906 256.978625 31.179281 257.0255 31.249594 C 257.068469 31.316 257.138781 31.429281 257.185656 31.499594 C 257.228625 31.566 257.302844 31.679281 257.345812 31.749594 C 257.392687 31.819906 257.463 31.929281 257.505969 31.999594 C 257.552844 32.069906 257.623156 32.183188 257.666125 32.249594 C 257.713 32.319906 257.783312 32.433188 257.830187 32.5035 C 257.873156 32.573813 257.943469 32.687094 257.990344 32.757406 C 258.033312 32.827719 258.107531 32.941 258.1505 33.011313 C 258.193469 33.081625 258.267687 33.194906 258.310656 33.265219 C 258.357531 33.335531 258.427844 33.448813 258.470812 33.519125 C 258.517687 33.589438 258.588 33.702719 258.634875 33.773031 C 258.677844 33.84725 258.748156 33.960531 258.795031 34.030844 C 258.838 34.101156 258.912219 34.214438 258.955187 34.288656 C 258.998156 34.358969 259.072375 34.47225 259.115344 34.546469 C 259.162219 34.616781 259.232531 34.730063 259.2755 34.804281 C 259.322375 34.874594 259.392687 34.991781 259.439562 35.062094 C 259.482531 35.132406 259.552844 35.249594 259.599719 35.319906 C 259.642687 35.394125 259.716906 35.507406 259.759875 35.581625 C 259.802844 35.651938 259.877062 35.769125 259.920031 35.843344 C 259.966906 35.913656 260.037219 36.030844 260.080187 36.105063 C 260.127062 36.175375 260.197375 36.292563 260.24425 36.366781 C 260.287219 36.437094 260.357531 36.554281 260.404406 36.6285 C 260.447375 36.702719 260.521594 36.819906 260.564562 36.890219 C 260.607531 36.964438 260.68175 37.081625 260.724719 37.155844 C 260.771594 37.230063 260.841906 37.34725 260.884875 37.417563 C 260.93175 37.491781 261.002062 37.608969 261.048937 37.683188 C 261.091906 37.757406 261.162219 37.8785 261.209094 37.948813 C 261.252062 38.023031 261.322375 38.144125 261.36925 38.218344 C 261.412219 38.288656 261.486437 38.40975 261.529406 38.483969 C 261.576281 38.558188 261.646594 38.675375 261.689562 38.749594 C 261.736437 38.823813 261.80675 38.944906 261.849719 39.019125 C 261.896594 39.093344 261.966906 39.214438 262.013781 39.288656 C 262.05675 39.362875 262.127062 39.483969 262.173937 39.558188 C 262.216906 39.632406 262.291125 39.7535 262.334094 39.827719 C 262.377062 39.901938 262.451281 40.023031 262.49425 40.09725 C 262.541125 40.175375 262.611437 40.292563 262.654406 40.370688 C 262.701281 40.444906 262.771594 40.566 262.818469 40.640219 C 262.861437 40.718344 262.93175 40.839438 262.978625 40.913656 C 263.021594 40.987875 263.095812 41.108969 263.138781 41.187094 C 263.18175 41.261313 263.255969 41.386313 263.298937 41.460531 C 263.345812 41.53475 263.416125 41.65975 263.459094 41.733969 C 263.505969 41.812094 263.576281 41.933188 263.623156 42.011313 C 263.666125 42.085531 263.736437 42.210531 263.783312 42.28475 C 263.826281 42.362875 263.9005 42.483969 263.943469 42.562094 C 263.986437 42.636313 264.060656 42.761313 264.103625 42.839438 C 264.1505 42.913656 264.220812 43.038656 264.263781 43.116781 C 264.310656 43.191 264.380969 43.316 264.427844 43.394125 C 264.470812 43.468344 264.541125 43.593344 264.588 43.671469 C 264.630969 43.749594 264.701281 43.874594 264.748156 43.948813 C 264.791125 44.026938 264.865344 44.151938 264.908312 44.230063 C 264.955187 44.308188 265.0255 44.433188 265.068469 44.511313 C 265.115344 44.589438 265.185656 44.714438 265.228625 44.792563 C 265.2755 44.870688 265.345812 44.995688 265.392687 45.073813 C 265.435656 45.151938 265.505969 45.276938 265.552844 45.355063 C 265.595812 45.433188 265.670031 45.558188 265.713 45.636313 C 265.755969 45.714438 265.830187 45.843344 265.873156 45.921469 C 265.920031 45.999594 265.990344 46.124594 266.033312 46.202719 C 266.080187 46.28475 266.1505 46.40975 266.197375 46.487875 C 266.240344 46.566 266.310656 46.694906 266.357531 46.773031 C 266.4005 46.851156 266.474719 46.980063 266.517687 47.058188 C 266.560656 47.136313 266.634875 47.265219 266.677844 47.343344 C 266.724719 47.425375 266.795031 47.550375 266.838 47.632406 C 266.884875 47.710531 266.955187 47.839438 267.002062 47.917563 C 267.045031 47.999594 267.115344 48.1285 267.162219 48.206625 C 267.205187 48.288656 267.279406 48.413656 267.322375 48.495688 C 267.365344 48.573813 267.439562 48.702719 267.482531 48.78475 C 267.529406 48.862875 267.599719 48.991781 267.642687 49.073813 C 267.689562 49.155844 267.759875 49.28475 267.80675 49.362875 C 267.849719 49.444906 267.920031 49.573813 267.966906 49.655844 C 268.009875 49.733969 268.084094 49.862875 268.127062 49.944906 C 268.170031 50.026938 268.24425 50.155844 268.287219 50.237875 C 268.334094 50.319906 268.404406 50.448813 268.447375 50.530844 C 268.49425 50.608969 268.564562 50.741781 268.611437 50.823813 C 268.654406 50.901938 268.724719 51.03475 268.771594 51.116781 C 268.814562 51.198813 268.884875 51.327719 268.93175 51.40975 C 268.974719 51.491781 269.048937 51.624594 269.091906 51.706625 C 269.138781 51.78475 269.209094 51.917563 269.252062 51.999594 C 269.298937 52.081625 269.36925 52.214438 269.412219 52.296469 C 269.459094 52.3785 269.529406 52.511313 269.576281 52.593344 C 269.61925 52.675375 269.689562 52.804281 269.736437 52.890219 C 269.779406 52.97225 269.853625 53.105063 269.896594 53.187094 C 269.939562 53.269125 270.013781 53.401938 270.05675 53.483969 C 270.103625 53.566 270.173937 53.698813 270.216906 53.780844 C 270.263781 53.866781 270.334094 53.999594 270.380969 54.081625 C 270.423937 54.163656 270.49425 54.296469 270.541125 54.382406 C 270.584094 54.464438 270.658312 54.59725 270.701281 54.683188 C 270.74425 54.765219 270.818469 54.898031 270.861437 54.983969 C 270.908312 55.066 270.978625 55.198813 271.021594 55.28475 C 271.068469 55.366781 271.138781 55.5035 271.185656 55.585531 C 271.228625 55.667563 271.298937 55.804281 271.345812 55.886313 C 271.388781 55.97225 271.463 56.105063 271.505969 56.191 C 271.548937 56.273031 271.623156 56.40975 271.666125 56.495688 C 271.713 56.577719 271.783312 56.714438 271.826281 56.796469 C 271.873156 56.882406 271.943469 57.019125 271.990344 57.101156 C 272.033312 57.187094 272.103625 57.323813 272.1505 57.405844 C 272.193469 57.491781 272.263781 57.6285 272.310656 57.714438 C 272.353625 57.796469 272.427844 57.933188 272.470812 58.019125 C 272.517687 58.105063 272.588 58.241781 272.630969 58.327719 C 272.677844 58.40975 272.748156 58.546469 272.791125 58.632406 C 272.838 58.718344 272.908312 58.855063 272.955187 58.941 C 272.998156 59.026938 273.068469 59.163656 273.115344 59.249594 C 273.158312 59.335531 273.232531 59.47225 273.2755 59.558188 C 273.318469 59.644125 273.392687 59.780844 273.435656 59.866781 C 273.482531 59.952719 273.552844 60.093344 273.595812 60.179281 C 273.642687 60.265219 273.713 60.401938 273.759875 60.487875 C 273.802844 60.573813 273.873156 60.714438 273.920031 60.800375 C 273.963 60.886313 274.037219 61.023031 274.080187 61.108969 C 274.123156 61.198813 274.197375 61.335531 274.240344 61.421469 C 274.287219 61.507406 274.357531 61.648031 274.4005 61.733969 C 274.447375 61.823813 274.517687 61.960531 274.564562 62.046469 C 274.607531 62.136313 274.677844 62.273031 274.724719 62.362875 C 274.767687 62.448813 274.884875 62.675375 274.884875 62.675375 "
     transform="matrix(1, 0, 0, -1, 99.412, 71.066)"
     id="path47" />
  <g
     clip-path="url(#clip-4)"
     id="g51">
    <path
       fill="none"
       stroke-width="1.49442"
       stroke-linecap="butt"
       stroke-linejoin="miter"
       stroke="rgb(0%, 0%, 0%)"
       stroke-opacity="1"
       stroke-miterlimit="10"
       d="M 226.7755 -0.00040625 C 226.7755 -0.00040625 226.888781 -0.00040625 226.935656 -0.00040625 C 226.978625 -0.00040625 227.052844 -0.00040625 227.095812 -0.00040625 C 227.142687 -0.00040625 227.213 -0.00040625 227.255969 -0.00040625 C 227.302844 -0.00040625 227.373156 0.019125 227.420031 -0.00040625 C 227.463 -0.0160312 227.533312 -0.105875 227.580187 -0.125406 C 227.623156 -0.148844 227.693469 -0.141031 227.740344 -0.156656 C 227.783312 -0.168375 227.857531 -0.203531 227.9005 -0.219156 C 227.947375 -0.234781 228.017687 -0.254312 228.060656 -0.269937 C 228.107531 -0.281656 228.177844 -0.297281 228.220812 -0.309 C 228.267687 -0.324625 228.338 -0.351969 228.384875 -0.367594 C 228.427844 -0.387125 228.498156 -0.414469 228.545031 -0.430094 C 228.588 -0.445719 228.662219 -0.473062 228.705187 -0.492594 C 228.748156 -0.508219 228.822375 -0.547281 228.865344 -0.566812 C 228.912219 -0.586344 228.982531 -0.609781 229.0255 -0.625406 C 229.072375 -0.644937 229.142687 -0.680094 229.189562 -0.699625 C 229.232531 -0.719156 229.302844 -0.754312 229.349719 -0.77775 C 229.392687 -0.797281 229.466906 -0.824625 229.509875 -0.844156 C 229.552844 -0.863687 229.627062 -0.894937 229.670031 -0.918375 C 229.716906 -0.941812 229.787219 -0.980875 229.830187 -1.000406 C 229.877062 -1.023844 229.947375 -1.055094 229.99425 -1.078531 C 230.037219 -1.101969 230.107531 -1.137125 230.154406 -1.160562 C 230.197375 -1.184 230.271594 -1.223062 230.314562 -1.2465 C 230.357531 -1.273844 230.43175 -1.309 230.474719 -1.332437 C 230.521594 -1.355875 230.591906 -1.398844 230.634875 -1.422281 C 230.68175 -1.445719 230.752062 -1.488687 230.798937 -1.512125 C 230.841906 -1.539469 230.912219 -1.578531 230.959094 -1.601969 C 231.002062 -1.629312 231.072375 -1.672281 231.11925 -1.699625 C 231.162219 -1.723062 231.236437 -1.769937 231.279406 -1.793375 C 231.326281 -1.820719 231.396594 -1.867594 231.439562 -1.891031 C 231.486437 -1.918375 231.55675 -1.961344 231.599719 -1.988687 C 231.646594 -2.016031 231.716906 -2.062906 231.763781 -2.094156 C 231.80675 -2.1215 231.877062 -2.164469 231.923937 -2.191812 C 231.966906 -2.219156 232.041125 -2.266031 232.084094 -2.297281 C 232.127062 -2.324625 232.201281 -2.3715 232.24425 -2.398844 C 232.291125 -2.430094 232.361437 -2.476969 232.404406 -2.508219 C 232.451281 -2.539469 232.521594 -2.586344 232.568469 -2.617594 C 232.611437 -2.648844 232.68175 -2.695719 232.728625 -2.726969 C 232.771594 -2.758219 232.845812 -2.809 232.888781 -2.84025 C 232.93175 -2.8715 233.005969 -2.918375 233.048937 -2.949625 C 233.095812 -2.980875 233.166125 -3.031656 233.209094 -3.066812 C 233.255969 -3.098062 233.326281 -3.148844 233.373156 -3.180094 C 233.416125 -3.211344 233.486437 -3.262125 233.533312 -3.297281 C 233.576281 -3.328531 233.6505 -3.383219 233.693469 -3.418375 C 233.736437 -3.449625 233.810656 -3.504312 233.853625 -3.539469 C 233.9005 -3.570719 233.970812 -3.625406 234.013781 -3.656656 C 234.060656 -3.691812 234.130969 -3.7465 234.177844 -3.781656 C 234.220812 -3.816812 234.291125 -3.8715 234.338 -3.906656 C 234.380969 -3.937906 234.451281 -3.9965 234.498156 -4.031656 C 234.541125 -4.066812 234.615344 -4.1215 234.658312 -4.156656 C 234.705187 -4.191812 234.7755 -4.2465 234.818469 -4.285562 C 234.865344 -4.320719 234.935656 -4.379312 234.982531 -4.414469 C 235.0255 -4.449625 235.095812 -4.508219 235.142687 -4.543375 C 235.185656 -4.582437 235.255969 -4.641031 235.302844 -4.676187 C 235.345812 -4.71525 235.420031 -4.773844 235.463 -4.809 C 235.509875 -4.848062 235.580187 -4.906656 235.623156 -4.941812 C 235.670031 -4.980875 235.740344 -5.039469 235.783312 -5.078531 C 235.830187 -5.117594 235.9005 -5.176187 235.947375 -5.21525 C 235.990344 -5.254312 236.060656 -5.316812 236.107531 -5.355875 C 236.1505 -5.391031 236.224719 -5.453531 236.267687 -5.492594 C 236.310656 -5.531656 236.384875 -5.594156 236.427844 -5.633219 C 236.474719 -5.672281 236.545031 -5.734781 236.588 -5.773844 C 236.634875 -5.812906 236.705187 -5.879312 236.752062 -5.918375 C 236.795031 -5.957437 236.865344 -6.019937 236.912219 -6.062906 C 236.955187 -6.101969 237.029406 -6.164469 237.072375 -6.207437 C 237.115344 -6.2465 237.189562 -6.312906 237.232531 -6.351969 C 237.279406 -6.391031 237.349719 -6.457437 237.392687 -6.500406 C 237.439562 -6.539469 237.509875 -6.605875 237.55675 -6.648844 C 237.599719 -6.687906 237.670031 -6.754312 237.716906 -6.797281 C 237.759875 -6.84025 237.834094 -6.906656 237.877062 -6.945719 C 237.920031 -6.988687 237.99425 -7.055094 238.037219 -7.098062 C 238.084094 -7.141031 238.154406 -7.207437 238.197375 -7.250406 C 238.24425 -7.293375 238.314562 -7.363687 238.361437 -7.406656 C 238.404406 -7.449625 238.474719 -7.516031 238.521594 -7.559 C 238.564562 -7.601969 238.634875 -7.672281 238.68175 -7.71525 C 238.724719 -7.758219 238.798937 -7.828531 238.841906 -7.875406 C 238.888781 -7.918375 238.959094 -7.988687 239.002062 -8.031656 C 239.048937 -8.074625 239.11925 -8.144937 239.162219 -8.191812 C 239.209094 -8.234781 239.279406 -8.305094 239.326281 -8.351969 C 239.36925 -8.394937 239.439562 -8.46525 239.486437 -8.512125 C 239.529406 -8.555094 239.603625 -8.629312 239.646594 -8.672281 C 239.689562 -8.719156 239.763781 -8.789469 239.80675 -8.836344 C 239.853625 -8.883219 239.923937 -8.953531 239.966906 -9.000406 C 240.013781 -9.047281 240.084094 -9.1215 240.130969 -9.164469 C 240.173937 -9.211344 240.24425 -9.285562 240.291125 -9.332437 C 240.334094 -9.379312 240.408312 -9.453531 240.451281 -9.500406 C 240.49425 -9.547281 240.568469 -9.6215 240.611437 -9.668375 C 240.658312 -9.71525 240.728625 -9.789469 240.771594 -9.836344 C 240.818469 -9.883219 240.888781 -9.961344 240.935656 -10.008219 C 240.978625 -10.055094 241.048937 -10.129312 241.095812 -10.176187 C 241.138781 -10.226969 241.213 -10.301187 241.255969 -10.351969 C 241.298937 -10.398844 241.373156 -10.473062 241.416125 -10.523844 C 241.463 -10.570719 241.533312 -10.648844 241.576281 -10.695719 C 241.623156 -10.7465 241.693469 -10.824625 241.740344 -10.8715 C 241.783312 -10.922281 241.853625 -11.000406 241.9005 -11.047281 C 241.943469 -11.098062 242.013781 -11.176187 242.060656 -11.223062 C 242.103625 -11.273844 242.177844 -11.351969 242.220812 -11.40275 C 242.267687 -11.449625 242.338 -11.531656 242.380969 -11.578531 C 242.427844 -11.629312 242.498156 -11.711344 242.545031 -11.762125 C 242.588 -11.809 242.658312 -11.891031 242.705187 -11.941812 C 242.748156 -11.992594 242.818469 -12.070719 242.865344 -12.1215 C 242.908312 -12.172281 242.982531 -12.254312 243.0255 -12.305094 C 243.072375 -12.355875 243.142687 -12.437906 243.185656 -12.488687 C 243.232531 -12.539469 243.302844 -12.6215 243.345812 -12.672281 C 243.392687 -12.723062 243.463 -12.805094 243.509875 -12.855875 C 243.552844 -12.910562 243.623156 -12.992594 243.670031 -13.043375 C 243.713 -13.094156 243.787219 -13.176187 243.830187 -13.230875 C 243.873156 -13.281656 243.947375 -13.363687 243.990344 -13.418375 C 244.037219 -13.469156 244.107531 -13.551187 244.1505 -13.605875 C 244.197375 -13.656656 244.267687 -13.742594 244.314562 -13.793375 C 244.357531 -13.848062 244.427844 -13.934 244.474719 -13.984781 C 244.517687 -14.039469 244.591906 -14.1215 244.634875 -14.176187 C 244.677844 -14.230875 244.752062 -14.316812 244.795031 -14.367594 C 244.841906 -14.422281 244.912219 -14.508219 244.955187 -14.562906 C 245.002062 -14.613687 245.072375 -14.699625 245.11925 -14.754312 C 245.162219 -14.809 245.232531 -14.894937 245.279406 -14.949625 C 245.322375 -15.004312 245.396594 -15.09025 245.439562 -15.144937 C 245.482531 -15.199625 245.55675 -15.285562 245.599719 -15.34025 C 245.646594 -15.394937 245.716906 -15.484781 245.759875 -15.539469 C 245.80675 -15.594156 245.877062 -15.680094 245.923937 -15.734781 C 245.966906 -15.789469 246.037219 -15.879312 246.084094 -15.934 C 246.127062 -15.988687 246.197375 -16.078531 246.24425 -16.133219 C 246.287219 -16.191812 246.361437 -16.27775 246.404406 -16.336344 C 246.451281 -16.391031 246.521594 -16.480875 246.564562 -16.535562 C 246.611437 -16.594156 246.68175 -16.684 246.724719 -16.738687 C 246.771594 -16.793375 246.841906 -16.887125 246.888781 -16.941812 C 246.93175 -16.9965 247.002062 -17.086344 247.048937 -17.144937 C 247.091906 -17.199625 247.166125 -17.293375 247.209094 -17.348062 C 247.252062 -17.406656 247.326281 -17.4965 247.36925 -17.555094 C 247.416125 -17.613687 247.486437 -17.703531 247.529406 -17.762125 C 247.576281 -17.816812 247.646594 -17.910562 247.693469 -17.969156 C 247.736437 -18.023844 247.80675 -18.117594 247.853625 -18.176187 C 247.896594 -18.234781 247.970812 -18.328531 248.013781 -18.383219 C 248.05675 -18.441812 248.130969 -18.535562 248.173937 -18.594156 C 248.220812 -18.65275 248.291125 -18.7465 248.334094 -18.805094 C 248.380969 -18.863687 248.451281 -18.957437 248.498156 -19.016031 C 248.541125 -19.074625 248.611437 -19.168375 248.658312 -19.226969 C 248.701281 -19.285562 248.7755 -19.379312 248.818469 -19.437906 C 248.861437 -19.4965 248.935656 -19.594156 248.978625 -19.65275 C 249.0255 -19.711344 249.095812 -19.805094 249.138781 -19.867594 C 249.185656 -19.926187 249.255969 -20.019937 249.302844 -20.082437 C 249.345812 -20.141031 249.416125 -20.234781 249.463 -20.297281 C 249.505969 -20.355875 249.576281 -20.453531 249.623156 -20.512125 C 249.666125 -20.574625 249.740344 -20.668375 249.783312 -20.730875 C 249.830187 -20.789469 249.9005 -20.887125 249.943469 -20.949625 C 249.990344 -21.008219 250.060656 -21.105875 250.103625 -21.164469 C 250.1505 -21.226969 250.220812 -21.324625 250.267687 -21.387125 C 250.310656 -21.445719 250.380969 -21.543375 250.427844 -21.605875 C 250.470812 -21.664469 250.545031 -21.766031 250.588 -21.824625 C 250.634875 -21.887125 250.705187 -21.984781 250.748156 -22.047281 C 250.795031 -22.109781 250.865344 -22.207437 250.908312 -22.269937 C 250.955187 -22.332437 251.0255 -22.430094 251.072375 -22.492594 C 251.115344 -22.555094 251.185656 -22.656656 251.232531 -22.719156 C 251.2755 -22.77775 251.349719 -22.879312 251.392687 -22.941812 C 251.435656 -23.004312 251.509875 -23.105875 251.552844 -23.168375 C 251.599719 -23.230875 251.670031 -23.332437 251.713 -23.394937 C 251.759875 -23.457437 251.830187 -23.559 251.877062 -23.6215 C 251.920031 -23.684 251.990344 -23.785562 252.037219 -23.848062 C 252.080187 -23.910562 252.154406 -24.012125 252.197375 -24.074625 C 252.240344 -24.137125 252.314562 -24.242594 252.357531 -24.305094 C 252.404406 -24.367594 252.474719 -24.469156 252.517687 -24.535562 C 252.564562 -24.598062 252.634875 -24.699625 252.68175 -24.766031 C 252.724719 -24.828531 252.795031 -24.930094 252.841906 -24.9965 C 252.884875 -25.059 252.959094 -25.164469 253.002062 -25.226969 C 253.045031 -25.293375 253.11925 -25.394937 253.162219 -25.461344 C 253.209094 -25.523844 253.279406 -25.629312 253.322375 -25.691812 C 253.36925 -25.758219 253.439562 -25.863687 253.486437 -25.926187 C 253.529406 -25.992594 253.599719 -26.098062 253.646594 -26.160562 C 253.689562 -26.226969 253.759875 -26.332437 253.80675 -26.398844 C 253.849719 -26.461344 253.923937 -26.566812 253.966906 -26.633219 C 254.013781 -26.699625 254.084094 -26.805094 254.127062 -26.8715 C 254.173937 -26.934 254.24425 -27.039469 254.287219 -27.105875 C 254.334094 -27.172281 254.404406 -27.27775 254.451281 -27.344156 C 254.49425 -27.410562 254.564562 -27.519937 254.611437 -27.586344 C 254.654406 -27.65275 254.728625 -27.758219 254.771594 -27.824625 C 254.814562 -27.891031 254.888781 -27.9965 254.93175 -28.062906 C 254.978625 -28.129312 255.048937 -28.238687 255.091906 -28.305094 C 255.138781 -28.3715 255.209094 -28.480875 255.255969 -28.547281 C 255.298937 -28.613687 255.36925 -28.723062 255.416125 -28.789469 C 255.459094 -28.855875 255.533312 -28.96525 255.576281 -29.031656 C 255.61925 -29.098062 255.693469 -29.207437 255.736437 -29.273844 C 255.783312 -29.344156 255.853625 -29.449625 255.896594 -29.519937 C 255.943469 -29.586344 256.013781 -29.695719 256.060656 -29.766031 C 256.103625 -29.832437 256.173937 -29.941812 256.220812 -30.012125 C 256.263781 -30.078531 256.338 -30.187906 256.380969 -30.258219 C 256.423937 -30.324625 256.498156 -30.434 256.541125 -30.504312 C 256.588 -30.570719 256.658312 -30.684 256.701281 -30.750406 C 256.748156 -30.820719 256.818469 -30.930094 256.865344 -31.000406 C 256.908312 -31.070719 256.978625 -31.180094 257.0255 -31.250406 C 257.068469 -31.316812 257.138781 -31.430094 257.185656 -31.4965 C 257.228625 -31.566812 257.302844 -31.680094 257.345812 -31.750406 C 257.392687 -31.816812 257.463 -31.930094 257.505969 -32.000406 C 257.552844 -32.070719 257.623156 -32.180094 257.666125 -32.250406 C 257.713 -32.320719 257.783312 -32.434 257.830187 -32.504312 C 257.873156 -32.574625 257.943469 -32.687906 257.990344 -32.758219 C 258.033312 -32.828531 258.107531 -32.937906 258.1505 -33.008219 C 258.193469 -33.078531 258.267687 -33.191812 258.310656 -33.266031 C 258.357531 -33.336344 258.427844 -33.449625 258.470812 -33.519937 C 258.517687 -33.59025 258.588 -33.703531 258.634875 -33.773844 C 258.677844 -33.844156 258.748156 -33.961344 258.795031 -34.031656 C 258.838 -34.101969 258.912219 -34.21525 258.955187 -34.289469 C 258.998156 -34.359781 259.072375 -34.473062 259.115344 -34.543375 C 259.162219 -34.617594 259.232531 -34.730875 259.2755 -34.805094 C 259.322375 -34.875406 259.392687 -34.988687 259.439562 -35.062906 C 259.482531 -35.133219 259.552844 -35.250406 259.599719 -35.320719 C 259.642687 -35.394937 259.716906 -35.508219 259.759875 -35.582437 C 259.802844 -35.65275 259.877062 -35.769937 259.920031 -35.844156 C 259.966906 -35.914469 260.037219 -36.031656 260.080187 -36.101969 C 260.127062 -36.176187 260.197375 -36.293375 260.24425 -36.363687 C 260.287219 -36.437906 260.357531 -36.555094 260.404406 -36.629312 C 260.447375 -36.699625 260.521594 -36.816812 260.564562 -36.891031 C 260.607531 -36.96525 260.68175 -37.082437 260.724719 -37.156656 C 260.771594 -37.226969 260.841906 -37.344156 260.884875 -37.418375 C 260.93175 -37.492594 261.002062 -37.609781 261.048937 -37.684 C 261.091906 -37.758219 261.162219 -37.875406 261.209094 -37.949625 C 261.252062 -38.023844 261.322375 -38.141031 261.36925 -38.21525 C 261.412219 -38.289469 261.486437 -38.410562 261.529406 -38.484781 C 261.576281 -38.559 261.646594 -38.676187 261.689562 -38.750406 C 261.736437 -38.824625 261.80675 -38.945719 261.849719 -39.019937 C 261.896594 -39.094156 261.966906 -39.21525 262.013781 -39.289469 C 262.05675 -39.363687 262.127062 -39.484781 262.173937 -39.559 C 262.216906 -39.633219 262.291125 -39.754312 262.334094 -39.828531 C 262.377062 -39.90275 262.451281 -40.023844 262.49425 -40.098062 C 262.541125 -40.172281 262.611437 -40.293375 262.654406 -40.3715 C 262.701281 -40.445719 262.771594 -40.566812 262.818469 -40.641031 C 262.861437 -40.71525 262.93175 -40.836344 262.978625 -40.914469 C 263.021594 -40.988687 263.095812 -41.109781 263.138781 -41.187906 C 263.18175 -41.262125 263.255969 -41.383219 263.298937 -41.461344 C 263.345812 -41.535562 263.416125 -41.656656 263.459094 -41.734781 C 263.505969 -41.809 263.576281 -41.934 263.623156 -42.008219 C 263.666125 -42.086344 263.736437 -42.207437 263.783312 -42.285562 C 263.826281 -42.363687 263.9005 -42.484781 263.943469 -42.559 C 263.986437 -42.637125 264.060656 -42.762125 264.103625 -42.836344 C 264.1505 -42.914469 264.220812 -43.039469 264.263781 -43.113687 C 264.310656 -43.191812 264.380969 -43.316812 264.427844 -43.394937 C 264.470812 -43.469156 264.541125 -43.594156 264.588 -43.672281 C 264.630969 -43.750406 264.701281 -43.8715 264.748156 -43.949625 C 264.791125 -44.02775 264.865344 -44.15275 264.908312 -44.230875 C 264.955187 -44.309 265.0255 -44.434 265.068469 -44.512125 C 265.115344 -44.586344 265.185656 -44.71525 265.228625 -44.793375 C 265.2755 -44.867594 265.345812 -44.992594 265.392687 -45.070719 C 265.435656 -45.148844 265.505969 -45.27775 265.552844 -45.355875 C 265.595812 -45.434 265.670031 -45.559 265.713 -45.637125 C 265.755969 -45.71525 265.830187 -45.84025 265.873156 -45.922281 C 265.920031 -46.000406 265.990344 -46.125406 266.033312 -46.203531 C 266.080187 -46.281656 266.1505 -46.410562 266.197375 -46.488687 C 266.240344 -46.566812 266.310656 -46.695719 266.357531 -46.773844 C 266.4005 -46.851969 266.474719 -46.980875 266.517687 -47.059 C 266.560656 -47.137125 266.634875 -47.266031 266.677844 -47.344156 C 266.724719 -47.422281 266.795031 -47.551187 266.838 -47.633219 C 266.884875 -47.711344 266.955187 -47.84025 267.002062 -47.918375 C 267.045031 -48.000406 267.115344 -48.125406 267.162219 -48.207437 C 267.205187 -48.285562 267.279406 -48.414469 267.322375 -48.4965 C 267.365344 -48.574625 267.439562 -48.703531 267.482531 -48.785562 C 267.529406 -48.863687 267.599719 -48.992594 267.642687 -49.074625 C 267.689562 -49.15275 267.759875 -49.281656 267.80675 -49.363687 C 267.849719 -49.445719 267.920031 -49.574625 267.966906 -49.65275 C 268.009875 -49.734781 268.084094 -49.863687 268.127062 -49.945719 C 268.170031 -50.02775 268.24425 -50.156656 268.287219 -50.238687 C 268.334094 -50.316812 268.404406 -50.449625 268.447375 -50.52775 C 268.49425 -50.609781 268.564562 -50.742594 268.611437 -50.820719 C 268.654406 -50.90275 268.724719 -51.035562 268.771594 -51.117594 C 268.814562 -51.195719 268.884875 -51.328531 268.93175 -51.410562 C 268.974719 -51.492594 269.048937 -51.6215 269.091906 -51.703531 C 269.138781 -51.785562 269.209094 -51.918375 269.252062 -52.000406 C 269.298937 -52.082437 269.36925 -52.21525 269.412219 -52.297281 C 269.459094 -52.379312 269.529406 -52.508219 269.576281 -52.59025 C 269.61925 -52.672281 269.689562 -52.805094 269.736437 -52.887125 C 269.779406 -52.969156 269.853625 -53.101969 269.896594 -53.187906 C 269.939562 -53.269937 270.013781 -53.40275 270.05675 -53.484781 C 270.103625 -53.566812 270.173937 -53.699625 270.216906 -53.781656 C 270.263781 -53.863687 270.334094 -54.000406 270.380969 -54.082437 C 270.423937 -54.164469 270.49425 -54.297281 270.541125 -54.379312 C 270.584094 -54.46525 270.658312 -54.598062 270.701281 -54.680094 C 270.74425 -54.766031 270.818469 -54.898844 270.861437 -54.980875 C 270.908312 -55.066812 270.978625 -55.199625 271.021594 -55.281656 C 271.068469 -55.367594 271.138781 -55.500406 271.185656 -55.586344 C 271.228625 -55.668375 271.298937 -55.805094 271.345812 -55.887125 C 271.388781 -55.973062 271.463 -56.105875 271.505969 -56.191812 C 271.548937 -56.273844 271.623156 -56.410562 271.666125 -56.492594 C 271.713 -56.578531 271.783312 -56.71525 271.826281 -56.797281 C 271.873156 -56.883219 271.943469 -57.019937 271.990344 -57.101969 C 272.033312 -57.187906 272.103625 -57.324625 272.1505 -57.406656 C 272.193469 -57.492594 272.263781 -57.629312 272.310656 -57.711344 C 272.353625 -57.797281 272.427844 -57.934 272.470812 -58.019937 C 272.517687 -58.105875 272.588 -58.242594 272.630969 -58.324625 C 272.677844 -58.410562 272.748156 -58.547281 272.791125 -58.633219 C 272.838 -58.719156 272.908312 -58.855875 272.955187 -58.941812 C 272.998156 -59.02775 273.068469 -59.164469 273.115344 -59.250406 C 273.158312 -59.336344 273.232531 -59.473062 273.2755 -59.559 C 273.318469 -59.644937 273.392687 -59.781656 273.435656 -59.867594 C 273.482531 -59.953531 273.552844 -60.09025 273.595812 -60.176187 C 273.642687 -60.266031 273.713 -60.40275 273.759875 -60.488687 C 273.802844 -60.574625 273.873156 -60.711344 273.920031 -60.801187 C 273.963 -60.887125 274.037219 -61.023844 274.080187 -61.109781 C 274.123156 -61.195719 274.197375 -61.336344 274.240344 -61.422281 C 274.287219 -61.508219 274.357531 -61.648844 274.4005 -61.734781 C 274.447375 -61.820719 274.517687 -61.961344 274.564562 -62.047281 C 274.607531 -62.137125 274.677844 -62.273844 274.724719 -62.363687 C 274.767687 -62.449625 274.884875 -62.676187 274.884875 -62.676187 "
       transform="matrix(1, 0, 0, -1, 99.412, 71.066)"
       id="path49" />
  </g>
</svg>
